<svg width="18" height="18" viewBox="0 0 18 18" fill="none" xmlns="http://www.w3.org/2000/svg">
<path id="Vector" d="M17.3636 6.16589C18.4402 5.08927 17.9493 3.83179 17.3636 3.22028L14.7796 0.63641C13.6943 -0.440202 12.4453 0.0507331 11.8338 0.63641L10.3695 2.10921H8.13867C6.50213 2.10921 5.55466 2.9705 5.07232 3.96099L1.24799 7.78511V11.2303L0.636443 11.8332C-0.440225 12.9184 0.0507357 14.1673 0.636443 14.7788L3.22045 17.3626C3.68557 17.8277 4.18514 18 4.65887 18C5.27042 18 5.83029 17.6985 6.16621 17.3626L8.49181 15.0286H11.584C13.0483 15.0286 13.789 14.1156 14.056 13.2198C15.0293 12.9615 15.5634 12.2207 15.7787 11.4973C17.1138 11.1528 17.6133 9.88666 17.6133 8.99953V6.41566H17.1052L17.3636 6.16589ZM15.8907 8.99953C15.8907 9.38711 15.727 9.86082 15.0293 9.86082H14.168V10.7221C14.168 11.1097 14.0044 11.5834 13.3067 11.5834H12.4453V12.4447C12.4453 12.8323 12.2817 13.306 11.584 13.306H7.78552L4.96034 16.131C4.69333 16.3808 4.53829 16.2344 4.44354 16.1396L1.86815 13.573C1.61836 13.306 1.76479 13.1509 1.85954 13.0562L2.97066 11.9365V8.49137L4.69333 6.76879V8.13824C4.69333 9.1804 5.3824 10.7221 7.27733 10.7221C9.17227 10.7221 9.86134 9.1804 9.86134 8.13824H15.8907V8.99953ZM16.1405 4.94286L14.6762 6.41566H8.13867V8.13824C8.13867 8.52582 7.97501 8.99953 7.27733 8.99953C6.57965 8.99953 6.416 8.52582 6.416 8.13824V5.55437C6.416 5.15818 6.56242 3.83179 8.13867 3.83179H11.0758L13.0397 1.86805C13.3067 1.61828 13.4617 1.7647 13.5565 1.85944L16.1319 4.42608C16.3816 4.69308 16.2352 4.84811 16.1405 4.94286Z" fill="black"/>
</svg>
