<svg width="18" height="18" viewBox="0 0 18 18" fill="none" xmlns="http://www.w3.org/2000/svg">
<path id="Vector" d="M15.4286 2.56988C14.86 2.57157 14.3081 2.76172 13.8593 3.11054C13.4105 3.45936 13.0901 3.94713 12.9484 4.49744H10.2407C10.1208 3.54342 9.73545 2.64215 9.12847 1.89616C8.5215 1.15017 7.71725 0.589395 6.8072 0.277606C5.89714 -0.0341825 4.91781 -0.0844663 3.98058 0.132473C3.04335 0.349413 2.18584 0.824869 1.50558 1.50477C0.825313 2.18466 0.349601 3.04171 0.132545 3.97844C-0.0845117 4.91517 -0.0342009 5.89398 0.277755 6.80354C0.589711 7.71311 1.15079 8.51692 1.89718 9.12357C2.64357 9.73022 3.54532 10.1153 4.49986 10.2352V12.9414C3.89386 13.0978 3.36572 13.4697 3.01445 13.9875C2.66318 14.5052 2.51289 15.1332 2.59176 15.7538C2.67062 16.3743 2.97322 16.9448 3.44284 17.3583C3.91246 17.7719 4.51685 18 5.14272 18C5.7686 18 6.37299 17.7719 6.84261 17.3583C7.31223 16.9448 7.61483 16.3743 7.69369 15.7538C7.77256 15.1332 7.62227 14.5052 7.271 13.9875C6.91973 13.4697 6.39159 13.0978 5.78559 12.9414V10.2358C6.69947 10.1208 7.56528 9.76119 8.29148 9.19491L10.6502 11.553C10.414 11.9447 10.2881 12.3929 10.2857 12.8502C10.2857 13.3585 10.4365 13.8554 10.719 14.2781C11.0016 14.7007 11.4032 15.0301 11.8731 15.2247C12.3429 15.4192 12.86 15.4701 13.3588 15.3709C13.8576 15.2717 14.3158 15.027 14.6754 14.6675C15.035 14.3081 15.2799 13.8502 15.3792 13.3516C15.4784 12.8531 15.4275 12.3363 15.2328 11.8667C15.0382 11.3971 14.7086 10.9957 14.2857 10.7133C13.8629 10.4309 13.3657 10.2801 12.8571 10.2801C12.3995 10.2825 11.9511 10.4084 11.5592 10.6444L9.19985 8.28639C9.76659 7.56084 10.1266 6.69571 10.2419 5.78248H12.949C13.0701 6.24677 13.319 6.66782 13.6675 6.99782C14.0159 7.32782 14.45 7.55355 14.9204 7.64937C15.3908 7.74518 15.8786 7.70725 16.3285 7.53987C16.7784 7.3725 17.1723 7.08239 17.4655 6.70249C17.7587 6.3226 17.9395 5.86814 17.9873 5.39072C18.035 4.91331 17.9479 4.43208 17.7357 4.00168C17.5236 3.57128 17.1949 3.20896 16.7871 2.95586C16.3793 2.70277 15.9086 2.56905 15.4286 2.56988ZM6.42846 15.4203C6.42846 15.6744 6.35305 15.9229 6.21177 16.1342C6.07049 16.3455 5.86969 16.5103 5.63475 16.6075C5.39982 16.7048 5.1413 16.7302 4.89189 16.6806C4.64248 16.6311 4.41339 16.5087 4.23358 16.329C4.05376 16.1492 3.93131 15.9203 3.8817 15.671C3.83209 15.4217 3.85755 15.1633 3.95486 14.9285C4.05218 14.6937 4.21697 14.493 4.42841 14.3518C4.63985 14.2106 4.88843 14.1353 5.14272 14.1353C5.48362 14.1356 5.81045 14.2711 6.0515 14.512C6.29255 14.7529 6.42812 15.0796 6.42846 15.4203ZM5.14272 8.99509C4.37984 8.99509 3.6341 8.76899 2.99978 8.34538C2.36547 7.92177 1.87108 7.31969 1.57914 6.61525C1.2872 5.91082 1.21081 5.13569 1.35965 4.38787C1.50848 3.64005 1.87584 2.95313 2.41528 2.41398C2.95472 1.87483 3.642 1.50767 4.39022 1.35891C5.13845 1.21016 5.914 1.28651 6.61881 1.57829C7.32362 1.87008 7.92603 2.3642 8.34986 2.99817C8.7737 3.63214 8.99992 4.37749 8.99992 5.13996C8.99873 6.16204 8.59196 7.14191 7.86886 7.86463C7.14575 8.58735 6.16535 8.9939 5.14272 8.99509ZM14.1428 12.8502C14.1428 13.1044 14.0674 13.3528 13.9262 13.5641C13.7849 13.7755 13.5841 13.9402 13.3491 14.0374C13.1142 14.1347 12.8557 14.1601 12.6063 14.1106C12.3569 14.061 12.1278 13.9386 11.948 13.7589C11.7682 13.5792 11.6457 13.3502 11.5961 13.1009C11.5465 12.8516 11.5719 12.5933 11.6693 12.3584C11.7666 12.1236 11.9314 11.9229 12.1428 11.7817C12.3542 11.6405 12.6028 11.5652 12.8571 11.5652C13.198 11.5655 13.5248 11.701 13.7659 11.9419C14.0069 12.1828 14.1425 12.5095 14.1428 12.8502ZM15.4286 6.425C15.1743 6.425 14.9257 6.34964 14.7143 6.20844C14.5028 6.06723 14.338 5.86654 14.2407 5.63173C14.1434 5.39692 14.1179 5.13854 14.1676 4.88926C14.2172 4.63999 14.3396 4.41102 14.5194 4.2313C14.6992 4.05159 14.9283 3.9292 15.1777 3.87961C15.4272 3.83003 15.6857 3.85548 15.9206 3.95274C16.1555 4.05 16.3563 4.21471 16.4976 4.42603C16.6389 4.63736 16.7143 4.88581 16.7143 5.13996C16.714 5.48067 16.5784 5.80733 16.3374 6.04825C16.0963 6.28917 15.7695 6.42466 15.4286 6.425Z" fill="black"/>
</svg>
