<svg width="17" height="16" viewBox="0 0 17 16" fill="none" xmlns="http://www.w3.org/2000/svg">
<path id="Vector" d="M12.1429 14.3182L13.6 15.809C14.0048 16.2301 14.5714 15.8932 14.5714 15.3963V11.7915L16.8381 8.92782C16.9283 8.80269 16.9832 8.65389 16.9967 8.49811C17.0102 8.34233 16.9818 8.18571 16.9145 8.04581C16.8473 7.90591 16.744 7.78825 16.6161 7.70601C16.4882 7.62378 16.3408 7.58022 16.1905 7.58022H10.5238C9.87619 7.58022 9.47143 8.42247 9.87619 8.92782L12.1429 11.7915V14.3182ZM10.5238 13.476H0V10.9492C0 8.67515 4.29048 7.58022 6.47619 7.58022C6.9619 7.58022 7.52857 7.66445 8.17619 7.74867C8.01429 8.25402 8.09524 8.8436 8.25714 9.34894C7.69048 9.26472 7.04286 9.18049 6.47619 9.18049C4.04762 9.18049 1.5381 10.4439 1.5381 10.9492V11.8757H10.119L10.5238 12.381V13.476ZM6.47619 0C4.69524 0 3.2381 1.51604 3.2381 3.36899C3.2381 5.22193 4.69524 6.73798 6.47619 6.73798C8.25714 6.73798 9.71428 5.22193 9.71428 3.36899C9.71428 1.51604 8.25714 0 6.47619 0ZM6.47619 5.05348C5.58571 5.05348 4.85714 4.29546 4.85714 3.36899C4.85714 2.44252 5.58571 1.68449 6.47619 1.68449C7.36667 1.68449 8.09524 2.44252 8.09524 3.36899C8.09524 4.29546 7.36667 5.05348 6.47619 5.05348Z" fill="black"/>
</svg>
