<svg width="208" height="173" viewBox="0 0 208 173" fill="none" xmlns="http://www.w3.org/2000/svg">
<path d="M98.1401 0C98.2601 0.09 98.3801 0.19002 98.5101 0.27002C100.883 1.68695 102.879 3.65614 104.328 6.01007C105.776 8.364 106.635 11.033 106.83 13.79C107.04 16.29 106.92 18.79 106.92 21.32C106.909 21.3916 106.912 21.4647 106.929 21.5352C106.946 21.6057 106.976 21.6721 107.019 21.7307C107.062 21.7892 107.116 21.8388 107.178 21.8764C107.24 21.914 107.308 21.939 107.38 21.95C109.6 22.67 111.81 23.41 114.02 24.15C114.22 24.1778 114.412 24.2457 114.586 24.3496C114.759 24.4535 114.909 24.5913 115.028 24.7547C115.146 24.9181 115.231 25.1038 115.276 25.3006C115.321 25.4974 115.326 25.7013 115.29 25.9V28.25C115.29 29.45 114.79 29.96 113.61 29.96H106.93V31.53C106.93 31.95 106.93 32.37 106.93 32.79C106.908 33.3134 106.69 33.8094 106.32 34.1797C105.949 34.5501 105.453 34.7679 104.93 34.79H104.2C104.2 34.94 104.2 35.06 104.2 35.19C104.2 36 104.2 36.81 104.2 37.62C104.2 38.1504 103.989 38.6592 103.614 39.0342C103.239 39.4093 102.731 39.62 102.2 39.62C99.3668 39.62 96.5368 39.62 93.7101 39.62C93.1797 39.62 92.671 39.4093 92.2959 39.0342C91.9208 38.6592 91.7101 38.1504 91.7101 37.62C91.7101 36.69 91.7101 35.77 91.7101 34.79H91.1601C90.862 34.8121 90.5626 34.77 90.2822 34.6665C90.0018 34.563 89.7468 34.4006 89.5345 34.1902C89.3222 33.9798 89.1575 33.7263 89.0515 33.4468C88.9455 33.1673 88.9007 32.8683 88.9201 32.57V29.92H82.0501C81.8356 29.9475 81.6177 29.9256 81.413 29.8561C81.2083 29.7865 81.0222 29.6712 80.8688 29.5188C80.7154 29.3664 80.5989 29.181 80.5281 28.9767C80.4572 28.7724 80.434 28.5547 80.4601 28.34V25.69C80.4277 25.3448 80.5226 24.9997 80.7271 24.7197C80.9316 24.4397 81.2314 24.2442 81.5701 24.17L88.4101 21.9C88.5423 21.8779 88.6604 21.8046 88.739 21.6961C88.8176 21.5876 88.8503 21.4525 88.8301 21.32C88.8301 19.32 88.8301 17.4 88.8301 15.44C88.7834 12.376 89.5466 9.35402 91.0427 6.67969C92.5388 4.00535 94.7146 1.77355 97.3501 0.210022C97.4411 0.145562 97.5279 0.0754009 97.6101 0H98.1401ZM105.54 23.51C105.54 20.73 105.59 17.94 105.54 15.16C105.54 12.5112 104.882 9.90382 103.625 7.57202C102.368 5.24022 100.552 3.25687 98.3401 1.79999C98.2163 1.68543 98.0538 1.62183 97.8851 1.62183C97.7164 1.62183 97.5539 1.68543 97.4301 1.79999C95.2018 3.26106 93.3759 5.25807 92.1197 7.60797C90.8635 9.95787 90.2172 12.5855 90.2401 15.25C90.1701 20.99 90.2401 26.74 90.2401 32.49C90.2401 33.22 90.4601 33.44 91.2401 33.44H104.65C105.39 33.44 105.65 33.22 105.65 32.44L105.54 23.51ZM93.0401 34.85C93.0401 34.92 93.0401 34.95 93.0401 34.97V37.45C93.0401 38.07 93.2901 38.31 93.9101 38.32H101.91C102.39 38.32 102.71 38.11 102.72 37.72C102.72 36.72 102.72 35.81 102.72 34.85H93.0401ZM88.7901 28.55V23.27L82.0501 25.53C82.0021 25.5501 81.9598 25.5814 81.9267 25.6215C81.8936 25.6616 81.8707 25.7091 81.8601 25.76C81.8601 26.68 81.8601 27.61 81.8601 28.55H88.7901ZM106.96 23.27V28.53H113.9C113.9 27.69 113.9 26.87 113.9 26.06C113.913 25.9884 113.912 25.9149 113.896 25.8439C113.88 25.7728 113.851 25.7056 113.809 25.6461C113.767 25.5865 113.714 25.5359 113.652 25.4971C113.591 25.4583 113.522 25.4321 113.45 25.42C112.16 25.02 110.89 24.58 109.61 24.15L106.96 23.27Z" fill="#0277B6"/>
<path d="M98.57 42.5C98.57 42.94 98.57 43.39 98.57 43.84C98.5819 43.9383 98.5727 44.0379 98.5432 44.1324C98.5136 44.2269 98.4644 44.314 98.3987 44.3881C98.333 44.4621 98.2524 44.5214 98.1621 44.562C98.0719 44.6025 97.974 44.6235 97.875 44.6235C97.7761 44.6235 97.6782 44.6025 97.588 44.562C97.4977 44.5214 97.4171 44.4621 97.3514 44.3881C97.2857 44.314 97.2365 44.2269 97.2069 44.1324C97.1774 44.0379 97.1682 43.9383 97.18 43.84C97.18 42.94 97.18 42.04 97.18 41.14C97.1732 41.0453 97.1859 40.9502 97.2175 40.8606C97.2491 40.771 97.2988 40.6889 97.3636 40.6194C97.4284 40.55 97.5068 40.4947 97.5939 40.4569C97.6811 40.4192 97.7751 40.3998 97.8701 40.4C97.9654 40.3999 98.0599 40.4192 98.1475 40.4569C98.2351 40.4945 98.3142 40.5497 98.3797 40.619C98.4453 40.6883 98.496 40.7703 98.5287 40.8599C98.5614 40.9495 98.5755 41.0448 98.57 41.14C98.58 41.6 98.57 42.05 98.57 42.5Z" fill="#0277B6"/>
<path d="M95.0799 41.82C95.0949 42.0498 95.0949 42.2803 95.0799 42.51C95.0787 42.6015 95.0592 42.6918 95.0227 42.7757C94.9862 42.8596 94.9333 42.9353 94.8673 42.9986C94.8012 43.0619 94.7232 43.1114 94.6378 43.1443C94.5525 43.1771 94.4614 43.1927 94.3699 43.19C94.1931 43.1874 94.0241 43.116 93.899 42.9909C93.7739 42.8658 93.7025 42.6969 93.7 42.52C93.7 42.05 93.7 41.52 93.7 41.09C93.7 40.907 93.7726 40.7315 93.902 40.6021C94.0314 40.4727 94.2069 40.4 94.3899 40.4C94.5729 40.4 94.7485 40.4727 94.8779 40.6021C95.0073 40.7315 95.0799 40.907 95.0799 41.09C95.0999 41.32 95.0799 41.57 95.0799 41.82Z" fill="#0277B6"/>
<path d="M102.05 41.8001C102.05 42.0501 102.05 42.3001 102.05 42.5401C102.04 42.7161 101.963 42.8815 101.834 43.0023C101.706 43.1232 101.536 43.1904 101.36 43.1901C101.272 43.1928 101.184 43.178 101.102 43.1468C101.02 43.1156 100.944 43.0684 100.88 43.0081C100.816 42.9477 100.765 42.8753 100.728 42.795C100.692 42.7147 100.673 42.6281 100.67 42.5401C100.67 42.0501 100.67 41.5401 100.67 41.0601C100.678 40.8832 100.754 40.7164 100.883 40.5951C101.012 40.4737 101.183 40.4073 101.36 40.4101C101.535 40.4122 101.704 40.4801 101.832 40.6005C101.959 40.7209 102.037 40.8849 102.05 41.0601V41.8001Z" fill="#0277B6"/>
<path d="M93 26.4701C93 25.5057 93.2857 24.563 93.8211 23.761C94.3564 22.9589 95.1174 22.3334 96.0079 21.9635C96.8985 21.5935 97.8786 21.4957 98.8247 21.6824C99.7708 21.8691 100.64 22.3319 101.324 23.0124C102.007 23.6928 102.473 24.5605 102.664 25.5058C102.854 26.4511 102.761 27.4317 102.394 28.3237C102.028 29.2157 101.406 29.9793 100.606 30.5179C99.8058 31.0565 98.8643 31.3461 97.9 31.3501C97.2575 31.3527 96.6207 31.2284 96.0264 30.9843C95.432 30.7403 94.8917 30.3812 94.4364 29.9278C93.9811 29.4744 93.6199 28.9356 93.3734 28.3422C93.1269 27.7488 93 27.1126 93 26.4701ZM101.36 26.4701C101.368 25.7803 101.171 25.1037 100.795 24.5257C100.418 23.9477 99.8788 23.4942 99.2448 23.2225C98.6107 22.9508 97.9104 22.8731 97.2322 22.9992C96.554 23.1253 95.9284 23.4496 95.4344 23.9311C94.9404 24.4125 94.6001 25.0295 94.4566 25.7043C94.3131 26.379 94.3727 27.0811 94.628 27.7219C94.8833 28.3627 95.3227 28.9135 95.8908 29.3048C96.4589 29.696 97.1303 29.9101 97.82 29.9201C98.7381 29.9282 99.6226 29.5753 100.283 28.9375C100.943 28.2996 101.326 27.4278 101.35 26.51L101.36 26.4701Z" fill="#0277B6"/>
<path d="M94.3499 13.2501C94.346 12.5594 94.547 11.8831 94.9277 11.3068C95.3083 10.7304 95.8514 10.28 96.4881 10.0125C97.1249 9.74502 97.8267 9.67245 98.5048 9.80403C99.1828 9.93562 99.8065 10.2654 100.297 10.7517C100.787 11.238 101.123 11.8589 101.26 12.5357C101.398 13.2126 101.331 13.915 101.069 14.5541C100.807 15.1931 100.361 15.74 99.7882 16.1256C99.2151 16.5112 98.5406 16.7181 97.8499 16.7201C97.3921 16.7227 96.9382 16.635 96.5143 16.4619C96.0905 16.2888 95.7049 16.0338 95.3798 15.7114C95.0546 15.3891 94.7963 15.0058 94.6196 14.5834C94.4429 14.161 94.3512 13.7079 94.3499 13.2501ZM97.8299 15.3301C98.2424 15.332 98.6463 15.2118 98.9906 14.9847C99.3349 14.7575 99.6043 14.4336 99.7649 14.0536C99.9254 13.6736 99.97 13.2547 99.8928 12.8494C99.8157 12.4442 99.6204 12.0708 99.3316 11.7764C99.0427 11.4819 98.6731 11.2796 98.2694 11.1948C97.8657 11.11 97.446 11.1465 97.063 11.2998C96.68 11.4531 96.351 11.7163 96.1174 12.0562C95.8837 12.3962 95.7558 12.7976 95.7499 13.2101C95.7472 13.4892 95.8003 13.7661 95.9058 14.0246C96.0114 14.283 96.1675 14.5177 96.3649 14.7151C96.5623 14.9125 96.7971 15.0686 97.0555 15.1741C97.3139 15.2797 97.5908 15.3328 97.8699 15.3301H97.8299Z" fill="#0277B6"/>
<path d="M9.88 125.08C14.232 125.08 17.76 121.552 17.76 117.2C17.76 112.848 14.232 109.32 9.88 109.32C5.528 109.32 2 112.848 2 117.2C2 121.552 5.528 125.08 9.88 125.08Z" stroke="#0277B6" stroke-width="4" stroke-miterlimit="10"/>
<path d="M152.47 142.14C155.524 142.14 158 139.664 158 136.61C158 133.556 155.524 131.08 152.47 131.08C149.416 131.08 146.94 133.556 146.94 136.61C146.94 139.664 149.416 142.14 152.47 142.14Z" stroke="#0277B6" stroke-width="3" stroke-miterlimit="10"/>
<path d="M47.6501 172.14C51.2896 172.14 54.2401 169.19 54.2401 165.55C54.2401 161.911 51.2896 158.96 47.6501 158.96C44.0105 158.96 41.0601 161.911 41.0601 165.55C41.0601 169.19 44.0105 172.14 47.6501 172.14Z" fill="#0277B6"/>
<path d="M111.41 140.73C113.685 140.73 115.53 138.886 115.53 136.61C115.53 134.335 113.685 132.49 111.41 132.49C109.135 132.49 107.29 134.335 107.29 136.61C107.29 138.886 109.135 140.73 111.41 140.73Z" fill="#0277B6"/>
<path d="M197.6 110.68C201.952 110.68 205.48 107.152 205.48 102.8C205.48 98.448 201.952 94.92 197.6 94.92C193.248 94.92 189.72 98.448 189.72 102.8C189.72 107.152 193.248 110.68 197.6 110.68Z" stroke="#0277B6" stroke-width="4" stroke-miterlimit="10"/>
<path d="M52.4399 118.46C55.494 118.46 57.9699 115.984 57.9699 112.93C57.9699 109.876 55.494 107.4 52.4399 107.4C49.3858 107.4 46.9099 109.876 46.9099 112.93C46.9099 115.984 49.3858 118.46 52.4399 118.46Z" stroke="#0277B6" stroke-width="3" stroke-miterlimit="10"/>
<path d="M98.7101 96.61C102.35 96.61 105.3 93.6596 105.3 90.02C105.3 86.3805 102.35 83.4301 98.7101 83.4301C95.0706 83.4301 92.1201 86.3805 92.1201 90.02C92.1201 93.6596 95.0706 96.61 98.7101 96.61Z" fill="#0277B6"/>
<path d="M148.12 102.61C150.395 102.61 152.24 100.765 152.24 98.49C152.24 96.2146 150.395 94.37 148.12 94.37C145.845 94.37 144 96.2146 144 98.49C144 100.765 145.845 102.61 148.12 102.61Z" fill="#0277B6"/>
</svg>
