<svg width="219" height="144" viewBox="0 0 219 144" fill="none" xmlns="http://www.w3.org/2000/svg">
<path d="M26.0299 10.6007C25.8899 10.8207 25.7998 11.1007 25.6198 11.1907C25.5165 11.2278 25.4054 11.238 25.297 11.2205C25.1885 11.2031 25.0863 11.1583 24.9998 11.0907C24.5783 10.6214 24.2032 10.1124 23.8798 9.5707C23.8488 9.45843 23.8462 9.34015 23.8724 9.22665C23.8986 9.11314 23.9528 9.00799 24.0299 8.92068C24.1201 8.85941 24.2245 8.82257 24.3332 8.8138C24.4419 8.80504 24.551 8.82466 24.6499 8.87069C25.1199 9.39069 25.5399 9.97067 26.0299 10.6007Z" fill="#0277B6"/>
<path d="M7.10994 13.6506C7.23994 13.7206 7.50992 13.7707 7.58992 13.9207C7.6408 14.0196 7.66737 14.1294 7.66737 14.2407C7.66737 14.352 7.6408 14.4617 7.58992 14.5607C7.19758 15.0547 6.75892 15.5101 6.27992 15.9207C6.17896 15.9767 6.06537 16.0061 5.9499 16.0061C5.83443 16.0061 5.72091 15.9767 5.61995 15.9207C5.54455 15.8324 5.49229 15.7268 5.46785 15.6133C5.44341 15.4999 5.44755 15.3821 5.47993 15.2706C5.89993 14.7506 6.39995 14.2706 6.86995 13.7906C6.94547 13.7367 7.02581 13.6898 7.10994 13.6506Z" fill="#0277B6"/>
<path d="M14.89 14.5507C14.89 14.0707 14.78 13.5507 14.73 12.9607C14.714 12.8858 14.7144 12.8083 14.7312 12.7335C14.748 12.6588 14.7808 12.5886 14.8274 12.5278C14.874 12.467 14.9332 12.4169 15.001 12.3812C15.0687 12.3454 15.1435 12.3248 15.22 12.3208C15.2956 12.3079 15.3731 12.3113 15.4473 12.3307C15.5214 12.3501 15.5905 12.3851 15.6501 12.4334C15.7097 12.4816 15.7584 12.542 15.7928 12.6105C15.8273 12.6791 15.8468 12.7541 15.85 12.8307C15.93 13.3807 15.9899 13.9407 16.0399 14.4907C16.056 14.5665 16.0554 14.6448 16.038 14.7202C16.0206 14.7957 15.9869 14.8663 15.9392 14.9273C15.8915 14.9883 15.8312 15.0382 15.7622 15.0733C15.6932 15.1085 15.6173 15.1281 15.5399 15.1308C15.1899 15.1608 14.97 14.9707 14.89 14.5507Z" fill="#0277B6"/>
<path d="M33.18 5.54069C32.4 5.47069 31.72 5.44072 31.05 5.32072C30.9 5.32072 30.7001 4.93071 30.7301 4.75071C30.7634 4.63797 30.825 4.53561 30.909 4.45335C30.993 4.37109 31.0966 4.31164 31.21 4.28068C31.8258 4.26054 32.4421 4.30073 33.05 4.40068C33.1597 4.4441 33.2567 4.51454 33.3319 4.60545C33.4071 4.69636 33.458 4.80481 33.4801 4.92069C33.5001 5.11069 33.29 5.33069 33.18 5.54069Z" fill="#0277B6"/>
<path d="M29.95 8.48067C29.0955 8.34368 28.3072 7.93728 27.7 7.3207C27.6788 7.22356 27.6795 7.12288 27.702 7.02602C27.7244 6.92916 27.7681 6.83855 27.83 6.7607C27.9112 6.69398 28.0066 6.64666 28.1088 6.6224C28.2111 6.59814 28.3175 6.59756 28.42 6.62069C28.9912 6.89138 29.5426 7.20215 30.07 7.55068C30.1379 7.62163 30.1885 7.70723 30.218 7.80087C30.2474 7.8945 30.255 7.99364 30.24 8.09066C30.21 8.24066 30.02 8.38067 29.95 8.48067Z" fill="#0277B6"/>
<path d="M10.71 13.3607C11.18 13.2407 11.57 13.5307 11.48 13.9007C11.3307 14.5336 11.137 15.1552 10.9 15.7608C10.8756 15.825 10.8376 15.8831 10.7888 15.9314C10.74 15.9797 10.6814 16.017 10.6169 16.0407C10.5525 16.0644 10.4836 16.074 10.4152 16.0688C10.3467 16.0636 10.2801 16.0439 10.22 16.0108C10.153 15.995 10.09 15.9653 10.0353 15.9237C9.98052 15.882 9.93512 15.8292 9.9021 15.7688C9.86908 15.7084 9.84917 15.6418 9.84363 15.5732C9.83808 15.5046 9.84711 15.4356 9.87 15.3707C10.04 14.7907 10.2199 14.2107 10.4299 13.6507C10.4799 13.4807 10.65 13.4107 10.71 13.3607Z" fill="#0277B6"/>
<path d="M20.9799 12.4807C21.1199 12.9407 21.0499 13.2207 20.7099 13.3507C20.6418 13.3844 20.5673 13.4029 20.4913 13.4047C20.4153 13.4064 20.3398 13.3915 20.2702 13.361C20.2006 13.3305 20.1386 13.2852 20.0885 13.2281C20.0383 13.171 20.0013 13.1036 19.9799 13.0307C19.7599 12.5007 19.55 11.9707 19.36 11.4407C19.3279 11.3752 19.3106 11.3035 19.3092 11.2305C19.3078 11.1576 19.3224 11.0852 19.3519 11.0185C19.3814 10.9518 19.4253 10.8924 19.4802 10.8444C19.5351 10.7964 19.5998 10.761 19.6699 10.7407C19.7339 10.7064 19.8046 10.6864 19.8772 10.6821C19.9497 10.6779 20.0222 10.6895 20.0898 10.7161C20.1574 10.7428 20.2184 10.7838 20.2685 10.8364C20.3186 10.889 20.3566 10.9519 20.38 11.0207C20.61 11.5407 20.8199 12.0707 20.9799 12.4807Z" fill="#0277B6"/>
<path d="M28.35 18.8707L30.6201 22.8107C31.9301 25.0907 33.24 27.3807 34.56 29.6507C34.77 30.0107 34.81 30.3106 34.46 30.5806C34.11 30.8506 33.82 30.6507 33.58 30.2307C32.5 28.3807 31.43 26.5207 30.36 24.6707L27.5001 19.6707C27.4501 19.5807 27.3801 19.4907 27.3801 19.4807L19.92 22.4007C19.99 22.6807 20.11 23.0707 20.2 23.4707C21.5733 29.5307 22.9467 35.5907 24.32 41.6507C24.32 41.7907 24.4301 41.9607 24.3801 42.0707C24.3301 42.1807 24.16 42.5306 23.99 42.5806C23.82 42.6306 23.5601 42.4907 23.3801 42.3807C23.2001 42.2707 23.26 42.1607 23.23 42.0407C22.17 37.374 21.1133 32.6907 20.06 27.9907L18.81 22.5107C18.444 22.6427 18.0653 22.7365 17.68 22.7907C17.363 22.8335 17.0408 22.774 16.7601 22.6207C16.0401 22.1407 15.37 21.6207 14.7 21.0707C14.589 20.9775 14.4591 20.9096 14.3193 20.8716C14.1794 20.8336 14.033 20.8265 13.8901 20.8507C11.8034 21.1107 9.7067 21.344 7.60003 21.5507C7.32391 21.5539 7.0565 21.454 6.85003 21.2706C6.21003 20.6606 5.63005 19.9807 4.99005 19.3607C4.80464 19.1881 4.57078 19.0764 4.32001 19.0407C3.53001 18.9307 2.74001 18.8807 1.95001 18.7807C1.54665 18.7646 1.16026 18.6141 0.852232 18.3532C0.544203 18.0923 0.33226 17.7359 0.250059 17.3407C0.170079 16.9572 0.211855 16.5583 0.369627 16.1997C0.527399 15.8412 0.79329 15.5408 1.13006 15.3407C2.49006 14.3407 3.86003 13.4707 5.22003 12.5507C6.07003 11.9807 6.93001 11.4407 7.76001 10.8607C7.98356 10.6923 8.16785 10.4773 8.30005 10.2307C9.06005 8.80067 9.75002 7.33069 10.58 5.94069C11.4806 4.51162 12.7163 3.3239 14.18 2.48067C14.5124 2.31547 14.7863 2.05262 14.965 1.72731C15.1438 1.40201 15.2188 1.02981 15.18 0.660664C15.1509 0.533592 15.1687 0.400258 15.2302 0.285298C15.2916 0.170339 15.3927 0.0815468 15.5146 0.0352372C15.6365 -0.0110723 15.7709 -0.0117701 15.8932 0.0333451C16.0156 0.0784604 16.1174 0.166307 16.18 0.28066C16.3766 0.567458 16.6569 0.786653 16.9826 0.908345C17.3083 1.03004 17.6636 1.04829 18.0001 0.960652C20.6529 0.442107 23.4015 0.767318 25.86 1.89064C26.2695 2.02101 26.6675 2.18495 27.05 2.3807C27.914 2.79176 28.9043 2.84914 29.81 2.54067C32 2.20067 34.18 1.85067 36.36 1.54067C36.6473 1.46485 36.9484 1.45787 37.2389 1.52022C37.5295 1.58258 37.8012 1.71252 38.032 1.89956C38.2629 2.08659 38.4464 2.3254 38.5677 2.59664C38.689 2.86788 38.7446 3.16389 38.73 3.46065C38.7055 3.821 38.5808 4.16733 38.3701 4.46065C37.8652 5.13239 37.3209 5.77356 36.74 6.3807C36.6117 6.50209 36.5112 6.6499 36.4456 6.81392C36.38 6.97795 36.3508 7.15423 36.36 7.33065C36.36 8.14065 36.36 8.9507 36.36 9.7607C36.3656 9.94233 36.3243 10.1223 36.2403 10.2834C36.1562 10.4445 36.0322 10.5813 35.8801 10.6807C34.2001 11.9007 32.5301 13.1407 30.8801 14.3507C30.7701 14.421 30.6772 14.5149 30.608 14.6256C30.5388 14.7363 30.4951 14.861 30.48 14.9907C30.36 15.8207 30.19 16.6507 30.06 17.4807C30.0337 17.6844 29.9543 17.8775 29.8296 18.0408C29.705 18.204 29.5396 18.3316 29.35 18.4107C28.95 18.4807 28.67 18.6907 28.35 18.8707ZM13.74 16.7907C17.8172 15.7096 21.7845 14.2499 25.59 12.4307C28.8737 10.9382 31.9359 8.99989 34.69 6.67067C35.6496 5.77098 36.5452 4.80528 37.3701 3.78066C37.7901 3.30066 37.47 2.72067 36.83 2.67067C36.674 2.6508 36.5161 2.6508 36.36 2.67067C33.77 3.07067 31.18 3.47064 28.59 3.89065C28.4126 3.93283 28.2501 4.02275 28.1201 4.15065C27.4401 4.74065 26.8201 5.42069 26.1201 5.94069C22.7101 8.31894 18.8837 10.0354 14.84 11.0007C12.9273 11.5462 10.9344 11.7559 8.95001 11.6207C8.7667 11.6327 8.5903 11.695 8.44006 11.8007C6.89006 12.8007 5.34005 13.8006 3.80005 14.8906C3.12005 15.3506 2.43005 15.8007 1.80005 16.3207C1.5797 16.5308 1.44744 16.8167 1.43005 17.1207C1.43005 17.4907 1.77004 17.6207 2.11004 17.6707C2.45004 17.7207 2.99005 17.8007 3.43005 17.8407C6.90164 18.0934 10.3907 17.7381 13.74 16.7907ZM9.46002 10.4907C14.18 10.9807 24.3801 6.8307 27.0201 3.5707C25.8801 3.1507 24.7701 2.71067 23.6401 2.35067C22.0581 1.85104 20.3815 1.72649 18.7431 1.98684C17.1047 2.24718 15.5492 2.88528 14.2 3.85067C11.77 5.42067 10.62 7.93067 9.46002 10.4807V10.4907ZM35.23 7.79067C26.8391 14.2527 16.7787 18.1867 6.23004 19.1307C6.59004 19.5107 6.90004 19.8707 7.23004 20.1807C7.42363 20.3502 7.67274 20.4427 7.93005 20.4407C9.87005 20.2407 11.82 20.0807 13.74 19.7407C17.4301 19.0632 21.0212 17.9278 24.43 16.3607C28.1506 14.713 31.624 12.5556 34.7501 9.95064C34.9071 9.83061 35.0196 9.66175 35.07 9.47066C35.21 8.93066 35.21 8.37067 35.23 7.79067ZM29.23 15.2607C25.0101 17.6493 20.4711 19.4238 15.7501 20.5307C16.3101 20.9407 16.75 21.2907 17.21 21.5907C17.3705 21.6826 17.5596 21.7112 17.74 21.6707C21.5371 20.817 25.182 19.3907 28.55 17.4407C28.7066 17.3446 28.8237 17.1955 28.8801 17.0206C29.0001 16.4806 29.09 15.9407 29.22 15.2607H29.23Z" fill="#0277B6"/>
<path d="M32.7999 34.0507C32.6499 34.2707 32.55 34.5507 32.35 34.6707C32.287 34.7071 32.2167 34.7289 32.1442 34.7347C32.0717 34.7406 31.9989 34.7302 31.9309 34.7043C31.8629 34.6785 31.8015 34.6378 31.7512 34.5853C31.7009 34.5328 31.6629 34.4697 31.64 34.4007C31.15 33.4907 30.6399 32.5807 30.1799 31.6707C29.7199 30.7607 29.29 29.9907 28.85 29.1507C28.63 28.7407 28.7 28.4107 29.03 28.2607C29.36 28.1107 29.66 28.2607 29.84 28.6007L32.61 33.8107L32.7 33.9807L32.7999 34.0507Z" fill="#0277B6"/>
<path d="M25.43 28.3407C25.65 29.1807 25.86 30.0307 26.1 30.8707C26.2 31.2507 26.1 31.5408 25.76 31.6908C25.42 31.8408 25.12 31.6107 24.99 31.1707C24.49 29.4707 23.9967 27.7641 23.51 26.0507C23.4 25.6707 23.51 25.3708 23.87 25.2608C24.23 25.1508 24.51 25.3807 24.61 25.7507C24.85 26.6207 25.07 27.5007 25.3 28.3707L25.43 28.3407Z" fill="#0277B6"/>
<path d="M38.5497 36.5406C38.4397 36.7006 38.3499 37.0206 38.1599 37.0906C38.0387 37.1153 37.9135 37.1119 37.7939 37.0807C37.6743 37.0495 37.5634 36.9913 37.4698 36.9106C37.272 36.6667 37.1072 36.3977 36.9798 36.1106C36.3098 34.9606 35.6398 33.8106 34.9798 32.6506C34.8529 32.474 34.7959 32.2568 34.8198 32.0406C34.8198 31.8706 35.1198 31.6207 35.2598 31.6307C35.5126 31.6677 35.7416 31.8001 35.8998 32.0007C36.6698 33.2707 37.3998 34.5606 38.1398 35.8506L38.5497 36.5406Z" fill="#0277B6"/>
<path d="M27.0999 34.2507C27.1799 34.5507 27.2598 34.8407 27.3298 35.1307C27.3525 35.1996 27.3606 35.2725 27.3534 35.3447C27.3462 35.4169 27.324 35.4868 27.2882 35.5499C27.2524 35.613 27.2039 35.6679 27.1456 35.7111C27.0874 35.7543 27.0206 35.7848 26.9498 35.8007C26.8818 35.8271 26.809 35.8388 26.7361 35.8351C26.6632 35.8315 26.5919 35.8125 26.5269 35.7795C26.4618 35.7465 26.4043 35.7002 26.3583 35.6435C26.3123 35.5869 26.2788 35.5212 26.2599 35.4507C26.0699 34.8507 25.8799 34.2407 25.7299 33.6207C25.709 33.5516 25.7033 33.4787 25.7133 33.4072C25.7232 33.3356 25.7485 33.2671 25.7875 33.2063C25.8264 33.1455 25.8781 33.0938 25.939 33.0549C25.9998 33.0159 26.0684 32.9906 26.1399 32.9807C26.2074 32.9562 26.2792 32.9462 26.3508 32.9514C26.4224 32.9566 26.4922 32.9768 26.5554 33.0108C26.6187 33.0448 26.6741 33.0917 26.7179 33.1486C26.7618 33.2054 26.793 33.2709 26.8098 33.3407C26.9198 33.6407 26.9798 33.9607 27.0598 34.2607L27.0999 34.2507Z" fill="#0277B6"/>
<path d="M26.2899 110.951C30.6419 110.951 34.1699 107.423 34.1699 103.071C34.1699 98.7187 30.6419 95.1907 26.2899 95.1907C21.9379 95.1907 18.4099 98.7187 18.4099 103.071C18.4099 107.423 21.9379 110.951 26.2899 110.951Z" stroke="#0277B6" stroke-width="4" stroke-miterlimit="10"/>
<path d="M167.59 113.651C170.644 113.651 173.12 111.175 173.12 108.121C173.12 105.067 170.644 102.591 167.59 102.591C164.536 102.591 162.06 105.067 162.06 108.121C162.06 111.175 164.536 113.651 167.59 113.651Z" stroke="#0277B6" stroke-width="3" stroke-miterlimit="10"/>
<path d="M74.2902 143.891C77.9297 143.891 80.8802 140.94 80.8802 137.301C80.8802 133.661 77.9297 130.711 74.2902 130.711C70.6506 130.711 67.7002 133.661 67.7002 137.301C67.7002 140.94 70.6506 143.891 74.2902 143.891Z" fill="#0277B6"/>
<path d="M84.41 61.0708C86.6854 61.0708 88.5301 59.2262 88.5301 56.9508C88.5301 54.6754 86.6854 52.8308 84.41 52.8308C82.1346 52.8308 80.29 54.6754 80.29 56.9508C80.29 59.2262 82.1346 61.0708 84.41 61.0708Z" fill="#0277B6"/>
<path d="M208.69 63.4207C213.042 63.4207 216.57 59.8928 216.57 55.5408C216.57 51.1888 213.042 47.6608 208.69 47.6608C204.338 47.6608 200.81 51.1888 200.81 55.5408C200.81 59.8928 204.338 63.4207 208.69 63.4207Z" stroke="#0277B6" stroke-width="4" stroke-miterlimit="10"/>
<path d="M73.2102 106.921C76.2643 106.921 78.7402 104.445 78.7402 101.391C78.7402 98.3366 76.2643 95.8607 73.2102 95.8607C70.1561 95.8607 67.6802 98.3366 67.6802 101.391C67.6802 104.445 70.1561 106.921 73.2102 106.921Z" stroke="#0277B6" stroke-width="3" stroke-miterlimit="10"/>
<path d="M150.11 50.7608C153.75 50.7608 156.7 47.8103 156.7 44.1708C156.7 40.5312 153.75 37.5808 150.11 37.5808C146.47 37.5808 143.52 40.5312 143.52 44.1708C143.52 47.8103 146.47 50.7608 150.11 50.7608Z" fill="#0277B6"/>
<path d="M111.74 92.1508C114.016 92.1508 115.86 90.3062 115.86 88.0308C115.86 85.7553 114.016 83.9108 111.74 83.9108C109.465 83.9108 107.62 85.7553 107.62 88.0308C107.62 90.3062 109.465 92.1508 111.74 92.1508Z" fill="#0277B6"/>
</svg>
