<svg width="185" height="183" viewBox="0 0 185 183" fill="none" xmlns="http://www.w3.org/2000/svg">
<path d="M184.508 60.0588C181.337 68.95 174.374 74.6132 167.118 79.8408C161.248 84.0828 154.978 87.7679 148.836 91.6314C148.393 91.8503 148.018 92.1877 147.755 92.6062C147.492 93.0247 147.349 93.5079 147.343 94.0024C145.851 117.627 130.311 137.48 107.351 143.815C87.7761 149.221 70.0508 144.893 54.8537 131.245C53.0326 129.61 51.5257 129.146 49.1404 129.681C38.8852 132.031 28.53 133.859 17.9677 133.402C14.1976 133.265 10.4638 132.614 6.86979 131.467C0.149618 129.246 -1.70005 123.84 1.58505 117.577C3.77206 113.693 6.6808 110.263 10.1549 107.471C18.0061 100.764 26.5449 94.9065 35.6287 89.996C36.1049 89.7795 36.5058 89.4262 36.7805 88.9811C37.0552 88.536 37.1912 88.0192 37.1712 87.4965C37.638 79.7436 39.7346 72.1762 43.3243 65.2885C46.9139 58.4008 51.9159 52.3477 58.0037 47.5243C64.0914 42.7009 71.128 39.2156 78.654 37.2961C86.1801 35.3767 94.0264 35.0661 101.681 36.3846C103.866 36.756 105.066 38.1272 104.794 39.8411C104.501 41.6693 102.916 42.6406 100.674 42.2835C86.2763 40.0197 73.2288 43.2048 61.7738 52.2174C51.5614 60.2444 45.5554 70.821 43.5986 83.6401C42.1606 93.0738 43.5368 102.722 47.555 111.378C47.7264 111.756 47.905 112.092 48.1692 112.692C79.7902 104.121 110.446 92.3208 139.652 77.4769C138.286 72.3344 136.052 67.4629 133.046 63.0725C128.834 56.9064 123.276 51.7782 116.792 48.0753C114.178 46.5684 113.45 45.0259 114.435 43.2762C115.421 41.5265 117.349 41.2694 119.727 42.9548C123.584 45.6757 127.319 48.5895 131.018 51.5246C131.336 51.86 131.739 52.1033 132.184 52.229C132.629 52.3547 133.099 52.3581 133.546 52.2388C143.971 49.6271 154.665 48.2394 165.412 48.1039C168.824 48.1399 172.224 48.5203 175.56 49.2394C179.687 50.0678 182.894 52.3388 184.508 56.438V60.0588ZM141.102 95.8806C115.114 109.316 87.7348 119.87 59.4528 127.353C71.3363 138.78 91.1754 143.779 109.265 137.116C129.225 129.746 140.102 111.421 141.102 95.8806ZM136.353 57.3521C137.253 58.6876 137.902 59.5517 138.431 60.4801C139.038 61.5442 139.695 61.8656 141.023 61.5942C145.251 60.7515 149.514 59.9588 153.799 59.5089C156.241 59.2848 158.702 59.4341 161.098 59.9516C164.762 60.7086 165.89 63.7866 163.905 66.936C163.357 67.7967 162.73 68.6048 162.034 69.3499C158.384 73.2492 153.985 76.1915 149.379 78.7838C128.054 90.8101 105.523 100.137 82.4842 108.264C67.5656 113.527 52.4898 118.412 36.8499 121.119C32.4721 121.833 28.0301 122.347 23.6167 121.283C19.496 120.29 18.3105 117.077 20.9386 113.699C22.3143 111.888 23.9397 110.282 25.7663 108.928C29.337 106.386 33.1077 104.165 36.7499 101.744C37.0275 101.572 37.267 101.345 37.4537 101.078C37.6403 100.81 37.7702 100.507 37.8354 100.187C37.747 98.7839 37.5657 97.3882 37.2926 96.0092C36.8356 96.202 36.5785 96.2948 36.3214 96.4305C28.0574 100.978 20.3357 106.447 13.3043 112.735C10.7765 115.113 8.54634 117.789 6.6627 120.705C5.12727 122.983 5.79142 125.039 8.29809 125.968C10.8638 126.949 13.5677 127.52 16.3109 127.66C29.1656 128.125 41.6776 125.675 54.011 122.604C86.2499 114.681 117.284 102.48 146.287 86.3253C156.099 80.8477 165.569 74.8274 173.624 66.8504C175.512 64.8667 177.096 62.614 178.323 60.1659C179.352 58.2305 178.623 56.5951 176.545 55.8024C174.63 54.9564 172.579 54.4582 170.489 54.3313C164.683 54.2813 158.841 54.3313 153.064 54.8169C147.593 55.2811 142.173 56.4309 136.353 57.3521ZM158.956 65.5577L158.706 64.8936L142.244 67.236L145.022 74.5132C149.836 71.678 154.771 69.1928 158.956 65.5577ZM42.0489 114.063L39.3494 106.921L25.4234 116.241L25.6663 116.791C31.2438 116.77 36.5857 115.27 42.0489 114.063Z" fill="#0277B6"/>
<path d="M167.575 0.519958C169.628 0.522303 171.661 0.928977 173.556 1.71676C175.452 2.50455 177.174 3.65802 178.624 5.11132C180.074 6.56461 181.224 8.28928 182.007 10.1868C182.791 12.0844 183.193 14.1177 183.19 16.1706C183.188 18.2235 182.781 20.2559 181.994 22.1516C181.206 24.0474 180.052 25.7694 178.599 27.2194C177.146 28.6694 175.421 29.8189 173.523 30.6024C171.626 31.3858 169.593 31.7879 167.54 31.7855C158.97 31.707 151.714 24.4083 151.914 16.0028C151.95 11.8766 153.617 7.93229 156.552 5.03132C159.486 2.13035 163.449 0.508482 167.575 0.519958ZM167.647 25.8009C172.646 25.9652 177.124 21.566 177.266 16.3384C177.28 13.7915 176.308 11.338 174.554 9.49162C172.799 7.64528 170.398 6.54929 167.854 6.43314C165.305 6.36672 162.831 7.30123 160.962 9.03651C159.093 10.7718 157.978 13.1699 157.856 15.7171C157.642 21.1589 161.962 25.6081 167.647 25.8009Z" fill="#0277B6"/>
<path d="M91.6611 50.0535C106.965 50.6391 118.485 56.7665 126.655 69.0214C127.476 70.2497 128.083 71.6566 126.962 72.8064C126.563 73.2078 126.084 73.5199 125.556 73.7218C125.028 73.9237 124.462 74.0109 123.898 73.9776C122.92 73.7633 121.977 72.6493 121.334 71.7066C117.799 66.3719 112.855 62.1203 107.051 59.4232C99.1085 55.6197 90.0014 55.0412 81.6415 57.8092C81.0131 58.0092 80.3846 58.2234 79.749 58.3805C77.8851 58.859 76.3854 58.1091 75.864 56.4594C75.3855 54.9454 76.1497 53.4243 77.9279 52.8173C80.0665 52.042 82.2573 51.4191 84.4838 50.9533C87.0691 50.4534 89.7114 50.2892 91.6611 50.0535Z" fill="#0277B6"/>
<path d="M40.4706 31.107C40.4226 33.4397 39.6857 35.706 38.3527 37.6208C37.0197 39.5356 35.15 41.0133 32.9791 41.868C30.8081 42.7227 28.4329 42.9162 26.1523 42.424C23.8716 41.9319 21.7875 40.7762 20.1622 39.1024C18.5369 37.4285 17.4429 35.3113 17.0181 33.0172C16.5933 30.723 16.8565 28.3545 17.7747 26.2097C18.6929 24.0648 20.225 22.2394 22.1781 20.9633C24.1313 19.6871 26.4184 19.0172 28.7514 19.0379C30.315 19.0555 31.8595 19.3823 33.2963 19.9994C34.733 20.6165 36.0334 21.5117 37.1227 22.6336C38.212 23.7554 39.0686 25.0816 39.6432 26.5358C40.2178 27.9901 40.499 29.5437 40.4706 31.107ZM28.6943 36.6703C29.864 36.6686 31.0069 36.3188 31.9772 35.6654C32.9474 35.0119 33.7012 34.0844 34.1425 33.0011C34.5838 31.9177 34.6925 30.7275 34.455 29.5821C34.2174 28.4367 33.6443 27.3879 32.8086 26.5694C31.9728 25.7508 30.9124 25.1996 29.7623 24.9859C28.6121 24.7722 27.4245 24.9058 26.3505 25.3695C25.2765 25.8332 24.3649 26.6061 23.7318 27.5897C23.0987 28.5734 22.7727 29.7232 22.7954 30.8928C22.8179 32.4391 23.4505 33.9139 24.5554 34.996C25.6602 36.0781 27.1478 36.6799 28.6943 36.6703Z" fill="#0277B6"/>
<path d="M100.317 161.233C102.473 161.24 104.578 161.887 106.366 163.093C108.154 164.299 109.543 166.008 110.357 168.005C111.172 170.001 111.375 172.194 110.941 174.307C110.507 176.419 109.456 178.354 107.92 179.868C106.385 181.381 104.434 182.405 102.316 182.808C100.198 183.211 98.0074 182.976 96.023 182.133C94.0386 181.289 92.3494 179.876 91.1698 178.071C89.9902 176.266 89.3733 174.151 89.3973 171.995C89.4256 169.122 90.5901 166.377 92.6362 164.361C94.6824 162.344 97.4437 161.219 100.317 161.233ZM105.216 172.174C105.228 171.188 104.949 170.22 104.413 169.393C103.877 168.565 103.108 167.915 102.203 167.523C101.298 167.132 100.298 167.016 99.3278 167.192C98.3576 167.367 97.461 167.825 96.7506 168.509C96.0403 169.193 95.5479 170.071 95.3354 171.034C95.123 171.997 95.2 173.001 95.5567 173.92C95.9134 174.839 96.5339 175.632 97.3402 176.199C98.1465 176.767 99.1026 177.083 100.088 177.108C101.421 177.127 102.707 176.62 103.667 175.696C104.627 174.772 105.184 173.506 105.216 172.174Z" fill="#0277B6"/>
</svg>
