<svg width="18" height="18" viewBox="0 0 18 18" fill="none" xmlns="http://www.w3.org/2000/svg">
<g id="octicon:goal-16" clip-path="url(#clip0_2205_1275)">
<path id="Vector" d="M15.3416 2.65839H15.3405L17.226 3.03526C17.3273 3.05551 17.4105 3.12976 17.4397 3.22989C17.4545 3.27852 17.4558 3.33026 17.4436 3.37958C17.4313 3.42891 17.4059 3.47398 17.37 3.51001L15.8254 5.05576C15.6406 5.24022 15.3901 5.34381 15.129 5.34376H13.8488L10.6312 8.56239C10.6926 8.79416 10.7039 9.03636 10.6644 9.27284C10.6248 9.50932 10.5353 9.73465 10.4018 9.93383C10.2684 10.133 10.094 10.3015 9.89029 10.428C9.68661 10.5544 9.45831 10.6361 9.2206 10.6674C8.98289 10.6988 8.74124 10.6791 8.51173 10.6097C8.28222 10.5404 8.07013 10.4229 7.88958 10.2651C7.70904 10.1073 7.56419 9.9129 7.46468 9.69476C7.36517 9.47662 7.3133 9.23978 7.3125 9.00001C7.31267 8.74114 7.37236 8.48577 7.48695 8.25364C7.60154 8.02151 7.76797 7.81884 7.97337 7.66128C8.17877 7.50372 8.41765 7.3955 8.67154 7.34497C8.92544 7.29444 9.18755 7.30297 9.43762 7.36989L12.6562 4.15014V2.87101C12.6562 2.61001 12.7597 2.35914 12.9442 2.17464L14.49 0.628887C14.526 0.593032 14.5711 0.567612 14.6204 0.55533C14.6698 0.543048 14.7215 0.544364 14.7701 0.559137C14.8702 0.588387 14.9445 0.671637 14.9648 0.772887L15.3416 2.65839Z" fill="black"/>
<path id="Vector_2" d="M2.24979 8.99999C2.25094 9.96519 2.45908 10.9189 2.86017 11.7969C3.26126 12.6748 3.84597 13.4565 4.57485 14.0892C5.30373 14.7219 6.15984 15.191 7.08541 15.4647C8.01099 15.7385 8.98451 15.8105 9.9403 15.6761C10.8961 15.5416 11.8119 15.2037 12.626 14.6851C13.4401 14.1666 14.1335 13.4795 14.6595 12.6702C15.1855 11.8609 15.5318 10.9482 15.675 9.99369C15.8183 9.03917 15.7552 8.06504 15.4899 7.13699C15.4527 7.02856 15.4379 6.9137 15.4465 6.79938C15.455 6.68505 15.4868 6.57368 15.5398 6.47202C15.5928 6.37036 15.6659 6.28055 15.7547 6.20805C15.8435 6.13555 15.9461 6.08189 16.0563 6.05032C16.1666 6.01876 16.282 6.00995 16.3958 6.02444C16.5095 6.03893 16.6191 6.07642 16.7178 6.13461C16.8166 6.1928 16.9025 6.27049 16.9703 6.36294C17.0381 6.45539 17.0864 6.56067 17.1122 6.67236C17.6258 8.46958 17.5282 10.3864 16.8348 12.1222C16.1414 13.858 14.8914 15.3145 13.2809 16.2632C11.6704 17.2119 9.79048 17.5991 7.93615 17.3641C6.08182 17.1291 4.35797 16.2852 3.03504 14.9647C1.71355 13.6421 0.868708 11.9181 0.633165 10.0634C0.397622 8.2086 0.784712 6.32813 1.73366 4.7172C2.68261 3.10626 4.13968 1.85608 5.87611 1.16295C7.61253 0.46981 9.52998 0.372963 11.3274 0.887614C11.5414 0.950177 11.722 1.09492 11.8296 1.2902C11.9372 1.48548 11.9632 1.71543 11.9018 1.92979C11.8404 2.14415 11.6967 2.32549 11.502 2.43418C11.3073 2.54288 11.0775 2.57009 10.8628 2.50986C9.85769 2.22149 8.79935 2.17052 7.77119 2.36099C6.74304 2.55145 5.77318 2.97814 4.93808 3.60741C4.10297 4.23668 3.42546 5.05134 2.95894 5.98715C2.49242 6.92296 2.24966 7.95434 2.24979 8.99999Z" fill="black"/>
<path id="Vector_3" d="M5.62505 9.00001C5.62512 9.61493 5.79307 10.2182 6.11078 10.7446C6.4285 11.2711 6.88393 11.7008 7.42794 11.9875C7.97195 12.2741 8.58391 12.4068 9.19779 12.3712C9.81167 12.3356 10.4042 12.1331 10.9114 11.7855C11.4186 11.437 11.8208 10.9565 12.0746 10.396C12.3284 9.83543 12.4241 9.21616 12.3514 8.60514C12.3318 8.45687 12.352 8.30603 12.41 8.16816C12.468 8.0303 12.5617 7.91038 12.6814 7.82077C12.8012 7.73116 12.9427 7.67508 13.0913 7.65831C13.2399 7.64155 13.3903 7.6647 13.527 7.72539C13.6637 7.78529 13.7821 7.88036 13.87 8.00092C13.958 8.12148 14.0124 8.2632 14.0277 8.41164C14.1499 9.45575 13.9441 10.512 13.4388 11.4338C12.9334 12.3557 12.1537 13.0973 11.2077 13.5558C10.2617 14.0144 9.19646 14.1671 8.15978 13.9927C7.1231 13.8183 6.16641 13.3255 5.42251 12.5828C4.6786 11.84 4.18438 10.884 4.00843 9.84763C3.83248 8.81121 3.98354 7.74573 4.44063 6.79906C4.89773 5.8524 5.63819 5.07151 6.55924 4.56478C7.4803 4.05804 8.53625 3.85061 9.58055 3.97126C9.69237 3.98164 9.80099 4.01423 9.90005 4.06713C9.99911 4.12003 10.0866 4.19217 10.1574 4.27933C10.2283 4.36649 10.281 4.4669 10.3125 4.57469C10.344 4.68248 10.3536 4.79548 10.3409 4.90705C10.3282 5.01863 10.2933 5.12654 10.2383 5.22446C10.1834 5.32239 10.1094 5.40835 10.0208 5.47731C9.93212 5.54628 9.83062 5.59685 9.72219 5.62608C9.61376 5.65531 9.50058 5.66259 9.3893 5.64751C8.91641 5.59261 8.43726 5.63837 7.98332 5.78178C7.52937 5.9252 7.1109 6.16303 6.75539 6.47965C6.39988 6.79627 6.11538 7.18452 5.92057 7.6189C5.72576 8.05327 5.62505 8.52395 5.62505 9.00001Z" fill="black"/>
</g>
<defs>
<clipPath id="clip0_2205_1275">
<rect width="18" height="18" fill="white"/>
</clipPath>
</defs>
</svg>
