<svg width="26" height="26" viewBox="0 0 26 26" fill="none" xmlns="http://www.w3.org/2000/svg">
<g clip-path="url(#clip0_2897_2174)">
<path d="M22.3891 7.94434H16.6113V9.04211H22.3891V20.5688H16.6113V21.6666H23.8336V9.04211C23.8336 8.75096 23.6814 8.47174 23.4105 8.26587C23.1396 8.05999 22.7722 7.94434 22.3891 7.94434Z" fill="black"/>
<path d="M14.3576 3.61133H4.41978C4.01371 3.61133 3.62426 3.74576 3.33712 3.98504C3.04998 4.22432 2.88867 4.54886 2.88867 4.88725V21.6669H15.8887V4.88725C15.8887 4.54886 15.7274 4.22432 15.4402 3.98504C15.1531 3.74576 14.7636 3.61133 14.3576 3.61133ZM14.4442 20.4632H12.2776V18.6576H6.49978V20.4632H4.33312V4.88725C4.33312 4.87777 4.33536 4.86838 4.33971 4.85962C4.34407 4.85085 4.35045 4.84289 4.3585 4.83619C4.36655 4.82948 4.3761 4.82416 4.38662 4.82053C4.39713 4.8169 4.4084 4.81503 4.41978 4.81503H14.3576C14.3689 4.81503 14.3802 4.8169 14.3907 4.82053C14.4012 4.82416 14.4108 4.82948 14.4188 4.83619C14.4269 4.84289 14.4333 4.85085 14.4376 4.85962C14.442 4.86838 14.4442 4.87777 14.4442 4.88725V20.4632Z" fill="black"/>
<path d="M5.77783 7.22217H7.22228V8.66661H5.77783V7.22217Z" fill="black"/>
<path d="M8.6665 7.22217H10.1109V8.66661H8.6665V7.22217Z" fill="black"/>
<path d="M11.5557 7.22217H13.0001V8.66661H11.5557V7.22217Z" fill="black"/>
<path d="M5.77783 10.8335H7.22228V12.2779H5.77783V10.8335Z" fill="black"/>
<path d="M8.6665 10.8335H10.1109V12.2779H8.6665V10.8335Z" fill="black"/>
<path d="M11.5557 10.8335H13.0001V12.2779H11.5557V10.8335Z" fill="black"/>
<path d="M5.77783 14.4443H7.22228V15.8888H5.77783V14.4443Z" fill="black"/>
<path d="M8.6665 14.4443H10.1109V15.8888H8.6665V14.4443Z" fill="black"/>
<path d="M11.5557 14.4443H13.0001V15.8888H11.5557V14.4443Z" fill="black"/>
<path d="M16.6113 12.2778H18.0558V13.7223H16.6113V12.2778Z" fill="black"/>
<path d="M19.5 12.2778H20.9444V13.7223H19.5V12.2778Z" fill="black"/>
<path d="M16.6113 15.8887H18.0558V17.3331H16.6113V15.8887Z" fill="black"/>
<path d="M19.5 15.8887H20.9444V17.3331H19.5V15.8887Z" fill="black"/>
</g>
<defs>
<clipPath id="clip0_2897_2174">
<rect width="26" height="26" fill="white"/>
</clipPath>
</defs>
</svg>
