<svg width="23" height="22" viewBox="0 0 23 22" fill="none" xmlns="http://www.w3.org/2000/svg">
<path d="M15.0869 14.2683C14.3744 14.8879 13.4879 15.6587 11.873 15.6587H10.909C9.74208 15.6587 8.68072 15.2434 7.92144 14.489C7.17998 13.7518 6.77046 12.744 6.77046 11.6494V10.3548C6.77046 9.26021 7.17901 8.25137 7.92144 7.51521C8.6812 6.76074 9.74208 6.34544 10.909 6.34544H11.873C13.4874 6.34544 14.3744 7.11629 15.0869 7.73586C15.826 8.37856 16.4644 8.93357 18.165 8.93357C18.4291 8.93357 18.6883 8.91285 18.9402 8.87286C18.9383 8.86756 18.9364 8.86323 18.9344 8.85841C18.8333 8.6127 18.7143 8.37085 18.577 8.13767L17.44 6.20573C16.3969 4.43278 14.4683 3.34106 12.3822 3.34106H10.1078C8.02165 3.34106 6.09308 4.43326 5.05003 6.20573L3.91303 8.13767C2.86997 9.91062 2.86997 12.094 3.91303 13.8665L5.05003 15.7984C6.09308 17.5714 8.02165 18.6626 10.1078 18.6626H12.3822C14.4683 18.6626 16.3969 17.5704 17.44 15.7984L18.577 13.8665C18.7143 13.6328 18.8333 13.392 18.9344 13.1462C18.9364 13.1409 18.9383 13.1366 18.9402 13.1318C18.6883 13.0918 18.43 13.0711 18.165 13.0711C16.4648 13.0706 15.826 13.6256 15.0869 14.2683Z" fill="#41444A"/>
<path d="M11.8734 7.51758H10.9094C9.13354 7.51758 7.96619 8.76201 7.96619 10.3548V11.6493C7.96619 13.2421 9.13306 14.4865 10.9094 14.4865H11.8734C14.4611 14.4865 14.2577 11.8984 18.165 11.8984C18.5393 11.8984 18.9093 11.9321 19.2692 11.9976C19.3877 11.3395 19.3877 10.666 19.2692 10.0074C18.9089 10.0729 18.5393 10.1067 18.165 10.1067C14.2577 10.1062 14.4611 7.51758 11.8734 7.51758Z" fill="#41444A"/>
<path d="M21.5134 12.9425C20.8461 12.4598 20.0806 12.1447 19.2688 11.9963C19.2673 12.0026 19.2669 12.0088 19.2654 12.0151C19.196 12.3943 19.0876 12.7677 18.9393 13.1299C19.6243 13.2388 20.2555 13.4913 20.7951 13.8791C20.7931 13.8849 20.7917 13.8907 20.7898 13.8969C20.4785 14.888 20.0093 15.8221 19.396 16.672C18.7899 17.5113 18.0571 18.2503 17.2174 18.8675C15.4743 20.15 13.3983 20.8273 11.2129 20.8273C9.86011 20.8273 8.54822 20.5677 7.31342 20.0555C6.12102 19.5607 5.04954 18.8521 4.12837 17.9487C3.20769 17.0454 2.4855 15.9946 1.98108 14.8244C1.45931 13.6132 1.19433 12.3263 1.19433 10.999C1.19433 9.67173 1.45931 8.3849 1.98108 7.1737C2.4855 6.00394 3.20769 4.9527 4.12837 4.04936C5.04905 3.14602 6.12053 2.43781 7.31342 1.94254C8.54774 1.4304 9.85963 1.17073 11.2129 1.17073C13.3983 1.17073 15.4743 1.84811 17.2174 3.13061C18.0571 3.74825 18.7894 4.48682 19.396 5.32608C20.0093 6.17642 20.4785 7.11059 20.7898 8.10113C20.7917 8.10739 20.7936 8.11317 20.7951 8.11896C20.256 8.50631 19.6243 8.75972 18.9393 8.86812C19.0876 9.2309 19.1965 9.60525 19.2654 9.98441C19.2669 9.99067 19.2673 9.99645 19.2688 10.0027C20.0806 9.85433 20.8457 9.53924 21.5134 9.0565C22.1532 8.59206 22.0294 8.0674 21.9321 7.75617C20.5219 3.2655 16.2567 0 11.2134 0C5.02015 0 0 4.92476 0 11C0 17.0752 5.02063 22 11.2134 22C16.2567 22 20.5219 18.734 21.9321 14.2409C22.0299 13.9316 22.1542 13.4075 21.5134 12.9425Z" fill="#41444A"/>
<path d="M18.9403 8.87141C18.6883 8.9114 18.4301 8.93212 18.1651 8.93212C16.4649 8.93212 15.826 8.37711 15.087 7.73441C14.3744 7.11484 13.488 6.34399 11.873 6.34399H10.909C9.74213 6.34399 8.68077 6.75929 7.92148 7.51376C7.18002 8.25088 6.77051 9.25876 6.77051 10.3534V11.6479C6.77051 12.7425 7.17906 13.7514 7.92148 14.4875C8.68125 15.242 9.74213 15.6573 10.909 15.6573H11.873C13.4875 15.6573 14.3744 14.886 15.087 14.2669C15.826 13.6242 16.4644 13.0692 18.1651 13.0692C18.4291 13.0692 18.6883 13.0899 18.9403 13.1299C19.0887 12.7676 19.1966 12.3937 19.2664 12.015C19.2679 12.0088 19.2684 12.0025 19.2698 11.9962C18.9094 11.9307 18.5399 11.897 18.1656 11.897C14.2583 11.897 14.4616 14.4851 11.874 14.4851H10.91C9.13412 14.4851 7.96677 13.2407 7.96677 11.6479V10.3534C7.96677 8.7606 9.13364 7.51616 10.91 7.51616H11.874C14.4616 7.51616 14.2588 10.1043 18.1656 10.1043C18.5399 10.1043 18.9099 10.0706 19.2698 10.005C19.2684 9.99878 19.2679 9.993 19.2664 9.98673C19.1975 9.60853 19.0887 9.23467 18.9403 8.87141Z" fill="#B4B7BD"/>
<path d="M18.9403 8.87141C18.6883 8.9114 18.4301 8.93212 18.1651 8.93212C16.4649 8.93212 15.826 8.37711 15.087 7.73441C14.3744 7.11484 13.488 6.34399 11.873 6.34399H10.909C9.74213 6.34399 8.68077 6.75929 7.92148 7.51376C7.18002 8.25088 6.77051 9.25876 6.77051 10.3534V11.6479C6.77051 12.7425 7.17906 13.7514 7.92148 14.4875C8.68125 15.242 9.74213 15.6573 10.909 15.6573H11.873C13.4875 15.6573 14.3744 14.886 15.087 14.2669C15.826 13.6242 16.4644 13.0692 18.1651 13.0692C18.4291 13.0692 18.6883 13.0899 18.9403 13.1299C19.0887 12.7676 19.1966 12.3937 19.2664 12.015C19.2679 12.0088 19.2684 12.0025 19.2698 11.9962C18.9094 11.9307 18.5399 11.897 18.1656 11.897C14.2583 11.897 14.4616 14.4851 11.874 14.4851H10.91C9.13412 14.4851 7.96677 13.2407 7.96677 11.6479V10.3534C7.96677 8.7606 9.13364 7.51616 10.91 7.51616H11.874C14.4616 7.51616 14.2588 10.1043 18.1656 10.1043C18.5399 10.1043 18.9099 10.0706 19.2698 10.005C19.2684 9.99878 19.2679 9.993 19.2664 9.98673C19.1975 9.60853 19.0887 9.23467 18.9403 8.87141Z" fill="#B4B7BD"/>
</svg>
