<svg width="26" height="26" viewBox="0 0 26 26" fill="none" xmlns="http://www.w3.org/2000/svg">
<path d="M22.1667 3.15677H19.1875V1.71924C19.1876 1.52862 19.1153 1.34574 18.9865 1.21086C18.8576 1.07598 18.6828 1.00013 18.5005 1C18.3181 0.999873 18.1432 1.07548 18.0142 1.21018C17.8852 1.34489 17.8126 1.52766 17.8125 1.71829V3.15677H13.6875V1.71924C13.6876 1.62485 13.6698 1.53138 13.6353 1.44415C13.6008 1.35692 13.5503 1.27765 13.4865 1.21086C13.4227 1.14407 13.3469 1.09108 13.2635 1.0549C13.1801 1.01872 13.0907 1.00006 13.0005 1C12.8181 0.999873 12.6432 1.07548 12.5142 1.21018C12.3852 1.34489 12.3126 1.52766 12.3125 1.71829V3.15677H8.1875V1.71924C8.18756 1.62485 8.16984 1.53138 8.13534 1.44415C8.10085 1.35692 8.05026 1.27765 7.98646 1.21086C7.92266 1.14407 7.84691 1.09108 7.76352 1.0549C7.68013 1.01872 7.59074 1.00006 7.50046 1C7.31812 0.999873 7.14321 1.07548 7.01419 1.21018C6.88517 1.34489 6.81262 1.52766 6.8125 1.71829V3.15677H3.83333C3.34726 3.15677 2.88109 3.35858 2.53729 3.71783C2.1935 4.07707 2.00024 4.56435 2 5.07252V22.0833C2 22.5916 2.19315 23.0792 2.53697 23.4386C2.88079 23.7981 3.3471 24 3.83333 24H22.1667C22.6529 24 23.1192 23.7981 23.463 23.4386C23.8068 23.0792 24 22.5916 24 22.0833V5.07252C23.9998 4.56435 23.8065 4.07707 23.4627 3.71783C23.1189 3.35858 22.6527 3.15677 22.1667 3.15677ZM22.625 22.0843C22.625 22.2112 22.5768 22.3329 22.4911 22.4227C22.4053 22.5126 22.289 22.5632 22.1676 22.5634H3.83333C3.71178 22.5634 3.5952 22.5129 3.50924 22.4231C3.42329 22.3332 3.375 22.2113 3.375 22.0843V5.07348C3.37524 4.94656 3.42364 4.82493 3.50957 4.73527C3.59549 4.64562 3.71193 4.59526 3.83333 4.59526H6.8125V6.03279C6.81238 6.22342 6.8847 6.40629 7.01354 6.54118C7.14239 6.67606 7.3172 6.75191 7.49954 6.75204C7.68188 6.75216 7.85679 6.67656 7.98581 6.54185C8.11483 6.40715 8.18738 6.22438 8.1875 6.03375V4.59526H12.3125V6.03279C12.3124 6.22342 12.3847 6.40629 12.5135 6.54118C12.6424 6.67606 12.8172 6.75191 12.9995 6.75204C13.1819 6.75216 13.3568 6.67656 13.4858 6.54185C13.6148 6.40715 13.6874 6.22438 13.6875 6.03375V4.59526H17.8125V6.03279C17.8124 6.22342 17.8847 6.40629 18.0135 6.54118C18.1424 6.67606 18.3172 6.75191 18.4995 6.75204C18.6819 6.75216 18.8568 6.67656 18.9858 6.54185C19.1148 6.40715 19.1874 6.22438 19.1875 6.03375V4.59526H22.1667C22.2879 4.59552 22.4041 4.64598 22.4898 4.73561C22.5756 4.82524 22.6238 4.94673 22.6241 5.07348L22.625 22.0843Z" fill="black"/>
<rect x="7" y="9" width="4" height="4" fill="black"/>
<rect x="15" y="9" width="4" height="4" fill="black"/>
<rect x="15" y="16" width="4" height="4" fill="black"/>
<rect x="7" y="16" width="4" height="4" fill="black"/>
</svg>
