<svg width="24" height="24" viewBox="0 0 24 24" fill="none" xmlns="http://www.w3.org/2000/svg">
<g clip-path="url(#clip0_2_35)">
<path d="M0 9.5C0.1 9.5 0 9.6 0 9.6V9.5Z" fill="#797979"/>
<path d="M0 9.6C0.1 9.6 0 9.7 0 9.6Z" fill="#494949"/>
<path d="M24 9.6C24 9.5 23.9 9.5 24 9.6C24 9.5 24 9.5 24 9.6Z" fill="#858585"/>
<path d="M24 10.7C24 10.6 23.9 10.7 24 10.7Z" fill="#444444"/>
<path d="M24 9.5V9.4C23.9 9.2 24 8.9 23.9 8.7C23.6 7 22.8 5.6 21.6 4.3C20.9 3.4 20 2.8 19 2.4C18 1.9 16.9 1.7 15.7 1.7C13.8 1.7 11.8 1.7 9.9 1.7C9.1 1.7 8.4 1.7 7.6 1.7C6.9 1.7 6.2 1.9 5.5 2.1C4.1 2.7 3 3.5 2 4.6C1.2 5.5 0.7 6.5 0.3 7.7C0.1 8.2 0.1 8.7 0 9.3C0 9.4 0 9.4 0 9.5V9.6V9.7C0 10 0 10.3 0 10.5V10.6V10.7C0 10.8 0 10.8 0 10.9C0.1 10.9 0 11 0.1 11.1C0.3 12.8 1 14.4 2.2 15.7C3.6 17.2 5.3 18.2 7.3 18.5C8.2 18.6 9 18.6 9.9 18.6C10.5 18.6 10.9 19 10.9 19.6C10.9 20.2 10.9 20.8 10.9 21.3C10.9 21.7 11 22 11.4 22.2C11.7 22.4 12.1 22.4 12.4 22.1C14.4 20.9 16.4 19.6 18.3 18.4C19.4 17.7 20.5 17 21.4 16.1C22.6 15 23.5 13.6 23.8 11.9C23.9 11.6 23.8 11.3 24 11.1C24 11 24 10.9 24 10.9V10.8V10.7V10.6C24 10.3 24 10 24 9.8V9.7V9.6C24 9.5 24 9.5 24 9.5ZM20.8 14C20.2 14.7 19.5 15.3 18.8 15.8C16.9 17.2 14.8 18.4 12.7 19.7C12.7 19 12.5 18.4 12.1 17.8C11.5 17.1 10.8 16.7 9.9 16.7C9.2 16.7 8.4 16.7 7.7 16.7C5 16.5 2.6 14.4 2 11.8C1.3 8.3 3.1 5 6.4 3.9C7 3.7 7.7 3.6 8.4 3.6C10.8 3.6 13.1 3.6 15.5 3.6C18.8 3.6 21.6 6 22 9.3C22.3 11 22 12.6 20.8 14Z" fill="#636463"/>
<path d="M12 9.2C10.8 9.2 9.59998 9.2 8.49998 9.2C7.99998 9.2 7.59998 8.8 7.59998 8.4C7.59998 7.9 7.89998 7.5 8.39998 7.4C8.49998 7.4 8.49998 7.4 8.59998 7.4C11 7.4 13.3 7.4 15.7 7.4C16.2 7.4 16.6 7.8 16.7 8.2C16.7 8.7 16.4 9.1 15.9 9.2C15.8 9.2 15.7 9.2 15.6 9.2C14.3 9.2 13.1 9.2 12 9.2Z" fill="#636463"/>
<path d="M12 11.1C13.2 11.1 14.4 11.1 15.5 11.1C16 11.1 16.4 11.5 16.4 11.9C16.4 12.4 16.1 12.8 15.6 12.9C15.5 12.9 15.5 12.9 15.4 12.9C13 12.9 10.7 12.9 8.29999 12.9C7.79999 12.9 7.39999 12.5 7.29999 12.1C7.29999 11.6 7.59999 11.2 8.09999 11.1C8.19999 11.1 8.29999 11.1 8.39999 11.1C9.69999 11.1 10.9 11.1 12 11.1Z" fill="#636463"/>
</g>
<defs>
<clipPath id="clip0_2_35">
<rect width="24" height="24" fill="white"/>
</clipPath>
</defs>
</svg>
