<svg width="26" height="26" viewBox="0 0 26 26" fill="none" xmlns="http://www.w3.org/2000/svg">
<path d="M23.194 12.5448L13.444 2.79484C13.0378 2.39192 12.4887 2.16605 11.9165 2.1665H4.33317C3.75854 2.1665 3.20744 2.39478 2.80111 2.80111C2.39478 3.20744 2.1665 3.75854 2.1665 4.33317V11.9165C2.16628 12.2024 2.22264 12.4855 2.33234 12.7496C2.44204 13.0136 2.60291 13.2533 2.80567 13.4548L12.5557 23.2048C12.9619 23.6077 13.511 23.8336 14.0832 23.8332C14.6569 23.8307 15.2062 23.6009 15.6107 23.194L23.194 15.6107C23.6009 15.2062 23.8307 14.6569 23.8332 14.0832C23.8334 13.7973 23.777 13.5141 23.6673 13.2501C23.5576 12.9861 23.3968 12.7464 23.194 12.5448ZM14.0832 21.6665L4.33317 11.9165V4.33317H11.9165L21.6665 14.0832M7.0415 5.4165C7.3629 5.4165 7.67708 5.51181 7.94431 5.69037C8.21154 5.86892 8.41982 6.12271 8.54281 6.41964C8.6658 6.71657 8.69798 7.04331 8.63528 7.35853C8.57258 7.67374 8.41781 7.96329 8.19055 8.19055C7.96329 8.41781 7.67374 8.57258 7.35853 8.63528C7.04331 8.69798 6.71657 8.6658 6.41964 8.54281C6.12271 8.41982 5.86892 8.21154 5.69037 7.94431C5.51181 7.67708 5.4165 7.3629 5.4165 7.0415C5.4165 6.61053 5.58771 6.1972 5.89246 5.89246C6.1972 5.58771 6.61053 5.4165 7.0415 5.4165Z" fill="black"/>
</svg>
