<svg width="34" height="35" viewBox="0 0 34 35" fill="none" xmlns="http://www.w3.org/2000/svg">
<g clip-path="url(#clip0_2007_6299)">
<path d="M3.5 19.109C3.5 18.5567 3.94772 18.109 4.5 18.109H9.5C10.0523 18.109 10.5 18.5567 10.5 19.109V34.109H3.5V19.109Z" fill="white"/>
<path d="M13.5 12.109C13.5 11.5567 13.9477 11.109 14.5 11.109H19.5C20.0523 11.109 20.5 11.5567 20.5 12.109V34.109H13.5V12.109Z" fill="white"/>
<path d="M23.5 7.10898C23.5 6.55669 23.9477 6.10898 24.5 6.10898H29.5C30.0523 6.10898 30.5 6.55669 30.5 7.10898V34.109H23.5V7.10898Z" fill="white"/>
</g>
<defs>
<clipPath id="clip0_2007_6299">
<rect width="34" height="34" fill="white" transform="translate(0 0.108978)"/>
</clipPath>
</defs>
</svg>
