<svg width="34" height="35" viewBox="0 0 34 35" fill="none" xmlns="http://www.w3.org/2000/svg">
<g id="ion:diamond-outline">
<path id="Vector" d="M3.18752 11.7965H30.8125M2.35213 12.6073L16.148 30.5011C16.2483 30.6318 16.3773 30.7377 16.525 30.8106C16.6728 30.8835 16.8353 30.9214 17 30.9214C17.1648 30.9214 17.3273 30.8835 17.475 30.8106C17.6228 30.7377 17.7518 30.6318 17.852 30.5011L31.6479 12.6073C31.7836 12.4307 31.8623 12.217 31.8735 11.9946C31.8848 11.7722 31.8281 11.5516 31.711 11.3622L27.0314 3.80847C26.935 3.65215 26.8003 3.52305 26.64 3.43344C26.4798 3.34383 26.2992 3.29669 26.1156 3.29648H7.88444C7.70081 3.29669 7.52029 3.34383 7.36002 3.43344C7.19974 3.52305 7.06504 3.65215 6.9687 3.80847L2.28905 11.3622C2.17194 11.5516 2.11526 11.7722 2.12653 11.9946C2.1378 12.217 2.21648 12.4307 2.35213 12.6073Z" stroke="white" stroke-width="2" stroke-linecap="round" stroke-linejoin="round"/>
<path id="Vector_2" d="M26.5625 4.35898L23.375 11.7965M23.375 11.7965L17 3.29648L10.625 11.7965M23.375 11.7965L17 29.859L10.625 11.7965M7.4375 4.35898L10.625 11.7965" stroke="white" stroke-width="2" stroke-linecap="round" stroke-linejoin="round"/>
</g>
</svg>
