<svg width="24" height="24" viewBox="0 0 24 24" fill="none" xmlns="http://www.w3.org/2000/svg">
<g clip-path="url(#clip0_2_31)">
<path d="M10.704 0.0690004C12.138 -0.2895 13.47 0.795 13.566 2.199C13.674 3.7755 13.911 5.223 14.208 6.084C14.3955 6.624 14.9265 7.6035 15.768 8.5425C16.6035 9.477 17.691 10.3095 18.9645 10.6575C19.9725 10.932 21 11.805 21 13.08V19.0815C21 20.349 19.977 21.2775 18.828 21.399C17.223 21.57 16.482 22.0215 15.726 22.4835L15.654 22.5285C15.246 22.776 14.787 23.0505 14.199 23.2545C13.6035 23.4585 12.9075 23.58 12 23.58H6.75C5.3445 23.58 4.3515 22.8645 3.849 21.984C3.60613 21.5685 3.47488 21.0972 3.468 20.616C3.468 20.388 3.5025 20.148 3.5835 19.92C3.282 19.5255 3.0135 19.053 2.8515 18.5685C2.6865 18.0735 2.5935 17.4255 2.8455 16.845C2.742 16.65 2.6655 16.4415 2.607 16.2405C2.4915 15.8355 2.4375 15.3885 2.4375 14.955C2.4375 14.523 2.4915 14.0775 2.607 13.671C2.65947 13.4841 2.72876 13.3024 2.814 13.128C2.55135 12.7543 2.38236 12.323 2.32128 11.8703C2.26019 11.4177 2.3088 10.9569 2.463 10.527C2.772 9.639 3.486 8.877 4.263 8.619C5.5335 8.196 6.9675 8.205 8.037 8.3025C8.25904 8.32248 8.48059 8.34749 8.7015 8.3775C8.18114 6.14908 8.21307 3.82727 8.7945 1.614C8.89566 1.25938 9.08971 0.938228 9.35659 0.683745C9.62346 0.429262 9.95348 0.250691 10.3125 0.1665L10.704 0.0690004ZM6.75 22.0815H12C12.765 22.0815 13.2945 21.978 13.71 21.8355C14.1315 21.69 14.469 21.4935 14.874 21.246L14.934 21.21C15.7665 20.7015 16.731 20.1135 18.669 19.908C19.1685 19.854 19.5 19.473 19.5 19.083V13.08C19.5 12.699 19.161 12.2655 18.57 12.105C16.9275 11.655 15.6045 10.611 14.649 9.543C13.6965 8.478 13.053 7.3305 12.792 6.576C12.4275 5.526 12.1815 3.924 12.069 2.301C12.0315 1.758 11.529 1.41 11.0685 1.524L10.6755 1.623C10.4355 1.683 10.2885 1.8375 10.2435 2.0055C9.63092 4.33953 9.70646 6.80092 10.461 9.093C10.5037 9.22048 10.5114 9.3571 10.4832 9.48855C10.455 9.62001 10.392 9.74147 10.3007 9.84021C10.2095 9.93896 10.0934 10.0114 9.96457 10.0499C9.83575 10.0884 9.69895 10.0915 9.5685 10.059L9.564 10.0575L9.543 10.053L9.456 10.032C8.94307 9.92308 8.42417 9.84444 7.902 9.7965C6.9075 9.7065 5.7165 9.7155 4.737 10.0425C4.4745 10.1295 4.062 10.4925 3.882 11.0175C3.7215 11.4795 3.7515 12.0225 4.281 12.5505L4.8105 13.08L4.281 13.611C4.2165 13.6755 4.1235 13.8225 4.05 14.0835C3.978 14.334 3.9375 14.6385 3.9375 14.955C3.9375 15.273 3.978 15.576 4.05 15.828C4.125 16.089 4.2165 16.236 4.281 16.3005L4.8105 16.83L4.281 17.361C4.2105 17.4315 4.1175 17.6265 4.2735 18.093C4.43605 18.5454 4.69445 18.9573 5.031 19.3005L5.5605 19.83L5.031 20.361C5.022 20.3685 4.9695 20.436 4.9695 20.616C4.97615 20.836 5.03861 21.0507 5.151 21.24C5.3985 21.672 5.9055 22.0815 6.75 22.0815Z" fill="#636463"/>
</g>
<defs>
<clipPath id="clip0_2_31">
<rect width="24" height="24" fill="white" transform="matrix(-1 0 0 1 24 0)"/>
</clipPath>
</defs>
</svg>
