<svg width="23" height="23" viewBox="0 0 23 23" fill="none" xmlns="http://www.w3.org/2000/svg">
<path id="Vector" d="M19.9576 0C20.6192 0 21.2538 0.268854 21.7216 0.747417C22.1895 1.22598 22.4523 1.87505 22.4523 2.55184V20.4147C22.4523 21.0915 22.1895 21.7406 21.7216 22.2192C21.2538 22.6977 20.6192 22.9666 19.9576 22.9666H2.4947C1.83306 22.9666 1.19853 22.6977 0.73068 22.2192C0.262833 21.7406 0 21.0915 0 20.4147V2.55184C0 1.87505 0.262833 1.22598 0.73068 0.747417C1.19853 0.268854 1.83306 0 2.4947 0H19.9576ZM19.3339 19.7768V13.0144C19.3339 11.9112 18.9055 10.8532 18.1429 10.0732C17.3803 9.29313 16.346 8.85489 15.2676 8.85489C14.2073 8.85489 12.9724 9.51837 12.3737 10.5136V9.09732H8.8936V19.7768H12.3737V13.4865C12.3737 12.504 13.1471 11.7002 14.1075 11.7002C14.5707 11.7002 15.0148 11.8884 15.3423 12.2234C15.6698 12.5584 15.8538 13.0127 15.8538 13.4865V19.7768H19.3339ZM4.83972 7.09412C5.39549 7.09412 5.9285 6.86829 6.32149 6.46629C6.71448 6.0643 6.93526 5.51908 6.93526 4.95057C6.93526 3.76397 5.99975 2.79427 4.83972 2.79427C4.28063 2.79427 3.74445 3.02145 3.34912 3.42584C2.95379 3.83022 2.7317 4.37869 2.7317 4.95057C2.7317 6.13718 3.67968 7.09412 4.83972 7.09412ZM6.57353 19.7768V9.09732H3.11837V19.7768H6.57353Z" fill="#0A66C2"/>
</svg>
