<svg width="34" height="35" viewBox="0 0 34 35" fill="none" xmlns="http://www.w3.org/2000/svg">
<g id="majesticons:puzzle-line">
<path id="Vector" d="M22.7292 8.60898H27.3333C27.7091 8.60898 28.0694 8.75823 28.3351 9.02391C28.6007 9.28959 28.75 9.64992 28.75 10.0256V14.6298C28.75 14.9116 28.6381 15.1819 28.4388 15.3811C28.2395 15.5804 27.9693 15.6923 27.6875 15.6923H27.3333C26.5819 15.6923 25.8612 15.9908 25.3299 16.5222C24.7985 17.0535 24.5 17.7742 24.5 18.5256C24.5 19.2771 24.7985 19.9978 25.3299 20.5291C25.8612 21.0605 26.5819 21.359 27.3333 21.359H27.6875C27.9693 21.359 28.2395 21.4709 28.4388 21.6702C28.6381 21.8694 28.75 22.1397 28.75 22.4215V28.4423C28.75 28.818 28.6007 29.1784 28.3351 29.444C28.0694 29.7097 27.7091 29.859 27.3333 29.859H22.7292C22.4474 29.859 22.1771 29.747 21.9779 29.5478C21.7786 29.3485 21.6667 29.0783 21.6667 28.7965V28.4423C21.6667 27.6909 21.3682 26.9702 20.8368 26.4388C20.3054 25.9075 19.5848 25.609 18.8333 25.609C18.0819 25.609 17.3612 25.9075 16.8299 26.4388C16.2985 26.9702 16 27.6909 16 28.4423V28.7965C16 29.0783 15.8881 29.3485 15.6888 29.5478C15.4895 29.747 15.2193 29.859 14.9375 29.859H8.91667C8.54094 29.859 8.18061 29.7097 7.91493 29.444C7.64926 29.1784 7.5 28.818 7.5 28.4423V22.4215C7.5 22.1397 7.38806 21.8694 7.1888 21.6702C6.98954 21.4709 6.71929 21.359 6.4375 21.359H6.08333C5.33189 21.359 4.61122 21.0605 4.07986 20.5291C3.54851 19.9978 3.25 19.2771 3.25 18.5256C3.25 17.7742 3.54851 17.0535 4.07986 16.5222C4.61122 15.9908 5.33189 15.6923 6.08333 15.6923H6.4375C6.71929 15.6923 6.98954 15.5804 7.1888 15.3811C7.38806 15.1819 7.5 14.9116 7.5 14.6298V10.0256C7.5 9.64992 7.64926 9.28959 7.91493 9.02391C8.18061 8.75823 8.54094 8.60898 8.91667 8.60898H14.9375C15.2193 8.60898 15.4895 8.49704 15.6888 8.29778C15.8881 8.09852 16 7.82827 16 7.54648V7.19231C16 6.44086 16.2985 5.7202 16.8299 5.18884C17.3612 4.65749 18.0819 4.35898 18.8333 4.35898C19.5848 4.35898 20.3054 4.65749 20.8368 5.18884C21.3682 5.7202 21.6667 6.44086 21.6667 7.19231V7.54648C21.6667 8.13298 22.1427 8.60898 22.7292 8.60898Z" stroke="white" stroke-width="2" stroke-linecap="round" stroke-linejoin="round"/>
</g>
</svg>
