<svg width="41" height="39" viewBox="0 0 41 39" fill="none" xmlns="http://www.w3.org/2000/svg">
<g id="mdi:linkedin">
<path id="Vector" d="M32.6232 4.875C33.5079 4.875 34.3563 5.21741 34.9819 5.8269C35.6074 6.4364 35.9589 7.26305 35.9589 8.125V30.875C35.9589 31.737 35.6074 32.5636 34.9819 33.1731C34.3563 33.7826 33.5079 34.125 32.6232 34.125H9.27364C8.38897 34.125 7.54053 33.7826 6.91498 33.1731C6.28942 32.5636 5.93799 31.737 5.93799 30.875V8.125C5.93799 7.26305 6.28942 6.4364 6.91498 5.8269C7.54053 5.21741 8.38897 4.875 9.27364 4.875H32.6232ZM31.7893 30.0625V21.45C31.7893 20.045 31.2165 18.6976 30.1968 17.7041C29.1771 16.7106 27.7942 16.1525 26.3522 16.1525C24.9345 16.1525 23.2834 16.9975 22.4828 18.265V16.4613H17.8296V30.0625H22.4828V22.0513C22.4828 20.8 23.5169 19.7762 24.8011 19.7762C25.4204 19.7762 26.0143 20.0159 26.4522 20.4426C26.8901 20.8692 27.1361 21.4479 27.1361 22.0513V30.0625H31.7893ZM12.4092 13.91C13.1523 13.91 13.865 13.6224 14.3904 13.1104C14.9159 12.5984 15.2111 11.904 15.2111 11.18C15.2111 9.66875 13.9602 8.43375 12.4092 8.43375C11.6616 8.43375 10.9447 8.72309 10.4161 9.23811C9.88749 9.75313 9.59053 10.4516 9.59053 11.18C9.59053 12.6913 10.8581 13.91 12.4092 13.91ZM14.7274 30.0625V16.4613H10.1076V30.0625H14.7274Z" fill="black"/>
</g>
</svg>
