<svg width="34" height="34" viewBox="0 0 34 34" fill="none" xmlns="http://www.w3.org/2000/svg">
<g id="mdi:rocket-outline">
<path id="Vector" d="M16.9998 2.83331C16.9998 2.83331 9.9165 5.66665 9.9165 17C9.9165 21.3916 10.9932 25.1458 12.2823 28.0925C12.5089 28.5891 12.8741 29.0098 13.334 29.3038C13.7939 29.5979 14.329 29.7528 14.8748 29.75H19.1248C19.6707 29.7528 20.2058 29.5979 20.6657 29.3038C21.1256 29.0098 21.4908 28.5891 21.7173 28.0925C23.0207 25.1458 24.0832 21.3916 24.0832 17C24.0832 5.66665 16.9998 2.83331 16.9998 2.83331ZM19.1248 26.9166H14.8748C13.4582 23.7433 12.7498 20.4141 12.7498 17C12.7498 10.4266 15.4415 7.36665 16.9998 6.13415C18.5582 7.36665 21.2498 10.4266 21.2498 17C21.2498 20.4141 20.5415 23.7433 19.1248 26.9166ZM28.3332 31.1666L22.8648 28.9708C23.8565 26.8033 24.5648 24.565 25.004 22.2841M11.1348 28.9708L5.6665 31.1666L8.99567 22.2841C9.43484 24.565 10.1432 26.8033 11.1348 28.9708ZM16.9998 17C15.4415 17 14.1665 15.725 14.1665 14.1666C14.1665 12.6083 15.4415 11.3333 16.9998 11.3333C18.5582 11.3333 19.8332 12.6083 19.8332 14.1666C19.8332 15.725 18.5582 17 16.9998 17Z" fill="white"/>
</g>
</svg>
