<svg width="34" height="35" viewBox="0 0 34 35" fill="none" xmlns="http://www.w3.org/2000/svg">
<g id="mdi:deal-outline">
<path id="Vector" d="M30.7558 12.4481C32.5267 10.6773 31.7192 8.60898 30.7558 7.60315L26.5058 3.35315C24.7208 1.58231 22.6667 2.38981 21.6608 3.35315L19.2525 5.77565H15.5833C12.8917 5.77565 11.3333 7.19231 10.54 8.82148L4.25 15.1115V20.7781L3.24417 21.7698C1.47333 23.5548 2.28083 25.609 3.24417 26.6148L7.49417 30.8648C8.25917 31.6298 9.08083 31.9131 9.86 31.9131C10.8658 31.9131 11.7867 31.4173 12.3392 30.8648L16.1642 27.0256H21.25C23.6583 27.0256 24.8767 25.524 25.3158 24.0506C26.9167 23.6256 27.795 22.4073 28.1492 21.2173C30.345 20.6506 31.1667 18.5681 31.1667 17.109V12.859H30.3308L30.7558 12.4481ZM28.3333 17.109C28.3333 17.7465 28.0642 18.5256 26.9167 18.5256H25.5V19.9423C25.5 20.5798 25.2308 21.359 24.0833 21.359H22.6667V22.7756C22.6667 23.4131 22.3975 24.1923 21.25 24.1923H15.0025L10.3558 28.839C9.91667 29.2498 9.66167 29.009 9.50583 28.8531L5.27 24.6315C4.85917 24.1923 5.1 23.9373 5.25583 23.7815L7.08333 21.9398V16.2731L9.91667 13.4398V15.6923C9.91667 17.4065 11.05 19.9423 14.1667 19.9423C17.2833 19.9423 18.4167 17.4065 18.4167 15.6923H28.3333V17.109ZM28.7442 10.4365L26.3358 12.859H15.5833V15.6923C15.5833 16.3298 15.3142 17.109 14.1667 17.109C13.0192 17.109 12.75 16.3298 12.75 15.6923V11.4423C12.75 10.7906 12.9908 8.60898 15.5833 8.60898H20.4142L23.6442 5.37898C24.0833 4.96815 24.3383 5.20898 24.4942 5.36481L28.73 9.58648C29.1408 10.0256 28.9 10.2806 28.7442 10.4365Z" fill="white"/>
</g>
</svg>
