<svg width="34" height="35" viewBox="0 0 34 35" fill="none" xmlns="http://www.w3.org/2000/svg">
<g id="mingcute:schedule-line" clip-path="url(#clip0_2007_6303)">
<g id="Group">
<path id="Vector" d="M22.6667 4.35898C23.0424 4.35898 23.4027 4.50823 23.6684 4.77391C23.9341 5.03959 24.0833 5.39992 24.0833 5.77564V7.19231H26.9167C27.6681 7.19231 28.3888 7.49082 28.9201 8.02218C29.4515 8.55353 29.75 9.2742 29.75 10.0256V27.0256C29.75 27.7771 29.4515 28.4978 28.9201 29.0291C28.3888 29.5605 27.6681 29.859 26.9167 29.859H7.08333C6.33189 29.859 5.61122 29.5605 5.07986 29.0291C4.54851 28.4978 4.25 27.7771 4.25 27.0256V10.0256C4.25 9.2742 4.54851 8.55353 5.07986 8.02218C5.61122 7.49082 6.33189 7.19231 7.08333 7.19231H9.91667V5.77564C9.91667 5.39992 10.0659 5.03959 10.3316 4.77391C10.5973 4.50823 10.9576 4.35898 11.3333 4.35898C11.7091 4.35898 12.0694 4.50823 12.3351 4.77391C12.6007 5.03959 12.75 5.39992 12.75 5.77564V7.19231H21.25V5.77564C21.25 5.39992 21.3993 5.03959 21.6649 4.77391C21.9306 4.50823 22.2909 4.35898 22.6667 4.35898ZM26.9167 10.0256H7.08333V27.0256H26.9167V10.0256ZM21.0007 13.3959C21.2679 13.1378 21.6257 12.995 21.9972 12.9983C22.3686 13.0015 22.7239 13.1505 22.9866 13.4132C23.2492 13.6758 23.3982 14.0311 23.4015 14.4026C23.4047 14.774 23.2619 15.1319 23.0038 15.3991L16.0027 22.4016C15.8698 22.5346 15.712 22.6402 15.5383 22.7121C15.3646 22.7841 15.1785 22.8212 14.9905 22.8212C14.8025 22.8212 14.6163 22.7841 14.4426 22.7121C14.2689 22.6402 14.1111 22.5346 13.9782 22.4016L10.9834 19.404C10.7254 19.1368 10.5826 18.7789 10.5858 18.4075C10.589 18.036 10.738 17.6807 11.0007 17.4181C11.2633 17.1554 11.6187 17.0064 11.9901 17.0032C12.3615 17 12.7194 17.1428 12.9866 17.4008L14.9912 19.404L21.0007 13.3959Z" fill="white"/>
</g>
</g>
<defs>
<clipPath id="clip0_2007_6303">
<rect width="34" height="34" fill="white" transform="translate(0 0.108978)"/>
</clipPath>
</defs>
</svg>
