<svg width="26" height="26" viewBox="0 0 26 26" fill="none" xmlns="http://www.w3.org/2000/svg">
<rect width="26" height="26" fill="#EFEFEF"/>
<g clip-path="url(#clip0_0_1)">
<rect width="1440" height="1024" transform="translate(-336 -170)" fill="white"/>
<g opacity="0.3">
<path d="M21.0647 -43.2727C20.5527 -44.5841 21.5199 -46 22.9278 -46H273.634C274.458 -46 275.197 -45.4948 275.497 -44.7273L285.716 -18.5511C285.898 -18.0826 285.898 -17.5624 285.715 -17.0941L275.138 9.89819C275.047 10.1307 275 10.3782 275 10.6279V66.5V179V404V852C275 853.105 274.105 854 273 854H22C20.8954 854 20 853.105 20 852V404V179V66.5V10.6279C20 10.3782 20.0468 10.1307 20.1379 9.89819L30.7146 -17.0941C30.8981 -17.5624 30.8984 -18.0826 30.7155 -18.5511L21.0647 -43.2727Z" fill="#A8D8CC"/>
<path d="M-250 -44C-250 -45.1046 -249.105 -46 -248 -46H3.63377C4.45766 -46 5.19724 -45.4948 5.49684 -44.7273L15.7155 -18.5511C15.8984 -18.0826 15.8981 -17.5624 15.7146 -17.0941L5.13785 9.89819C5.04675 10.1307 5 10.3782 5 10.6279V66.5V179V404V852C5 853.105 4.10457 854 3 854H-248C-249.105 854 -250 853.105 -250 852V-44Z" fill="#A8D8CC"/>
</g>
<g filter="url(#filter0_dd_0_1)">
<rect x="-32" y="-170" width="831" height="754" fill="white"/>
</g>
<rect x="-6.5" y="-6.5" width="360" height="38" rx="1.5" fill="white" stroke="#878787"/>
<path d="M13.0002 13.0002C11.8085 13.0002 10.7884 12.5759 9.93975 11.7272C9.09114 10.8786 8.66683 9.8585 8.66683 8.66683C8.66683 7.47516 9.09114 6.45502 9.93975 5.60641C10.7884 4.7578 11.8085 4.3335 13.0002 4.3335C14.1918 4.3335 15.212 4.7578 16.0606 5.60641C16.9092 6.45502 17.3335 7.47516 17.3335 8.66683C17.3335 9.8585 16.9092 10.8786 16.0606 11.7272C15.212 12.5759 14.1918 13.0002 13.0002 13.0002ZM4.3335 21.6668V18.6335C4.3335 18.0196 4.49166 17.4552 4.808 16.9402C5.12433 16.4253 5.54394 16.0328 6.06683 15.7627C7.18627 15.2029 8.32377 14.783 9.47933 14.5027C10.6349 14.2225 11.8085 14.0828 13.0002 14.0835C14.1918 14.0835 15.3654 14.2236 16.521 14.5038C17.6766 14.784 18.8141 15.2037 19.9335 15.7627C20.4571 16.0335 20.8771 16.4264 21.1934 16.9413C21.5097 17.4563 21.6676 18.0203 21.6668 18.6335V21.6668H4.3335ZM6.50016 19.5002H19.5002V18.6335C19.5002 18.4349 19.4503 18.2543 19.3507 18.0918C19.251 17.9293 19.1203 17.8029 18.9585 17.7127C17.9835 17.2252 16.9995 16.8597 16.0064 16.6163C15.0134 16.3729 14.0113 16.2509 13.0002 16.2502C11.9891 16.2502 10.987 16.3722 9.99391 16.6163C9.00086 16.8604 8.01683 17.2259 7.04183 17.7127C6.87933 17.8029 6.74825 17.9293 6.64858 18.0918C6.54891 18.2543 6.49944 18.4349 6.50016 18.6335V19.5002ZM13.0002 10.8335C13.596 10.8335 14.1062 10.6212 14.5309 10.1965C14.9556 9.77183 15.1676 9.26194 15.1668 8.66683C15.1668 8.071 14.9545 7.56075 14.5298 7.13608C14.1052 6.71141 13.5953 6.49944 13.0002 6.50016C12.4043 6.50016 11.8941 6.7125 11.4694 7.13716C11.0447 7.56183 10.8328 8.07172 10.8335 8.66683C10.8335 9.26266 11.0458 9.77291 11.4705 10.1976C11.8952 10.6222 12.4051 10.8342 13.0002 10.8335Z" fill="#333333"/>
</g>
<defs>
<filter id="filter0_dd_0_1" x="-44" y="-182" width="855" height="778" filterUnits="userSpaceOnUse" color-interpolation-filters="sRGB">
<feFlood flood-opacity="0" result="BackgroundImageFix"/>
<feColorMatrix in="SourceAlpha" type="matrix" values="0 0 0 0 0 0 0 0 0 0 0 0 0 0 0 0 0 0 127 0" result="hardAlpha"/>
<feOffset dx="-2" dy="-2"/>
<feGaussianBlur stdDeviation="5"/>
<feComposite in2="hardAlpha" operator="out"/>
<feColorMatrix type="matrix" values="0 0 0 0 0 0 0 0 0 0 0 0 0 0 0 0 0 0 0.1 0"/>
<feBlend mode="normal" in2="BackgroundImageFix" result="effect1_dropShadow_0_1"/>
<feColorMatrix in="SourceAlpha" type="matrix" values="0 0 0 0 0 0 0 0 0 0 0 0 0 0 0 0 0 0 127 0" result="hardAlpha"/>
<feOffset dx="2" dy="2"/>
<feGaussianBlur stdDeviation="5"/>
<feComposite in2="hardAlpha" operator="out"/>
<feColorMatrix type="matrix" values="0 0 0 0 0 0 0 0 0 0 0 0 0 0 0 0 0 0 0.1 0"/>
<feBlend mode="normal" in2="effect1_dropShadow_0_1" result="effect2_dropShadow_0_1"/>
<feBlend mode="normal" in="SourceGraphic" in2="effect2_dropShadow_0_1" result="shape"/>
</filter>
<clipPath id="clip0_0_1">
<rect width="1440" height="1024" fill="white" transform="translate(-336 -170)"/>
</clipPath>
</defs>
</svg>
