<svg width="24" height="24" viewBox="0 0 24 24" fill="none" xmlns="http://www.w3.org/2000/svg">
<g clip-path="url(#clip0_2_63)">
<path d="M0 9.5C0.1 9.5 0 9.6 0 9.6V9.5Z" fill="#797979"/>
<path d="M0 9.6C0.1 9.6 0 9.7 0 9.6Z" fill="#494949"/>
<path d="M7.1 24C6.8 23.9 6.6 23.7 6.4 23.5C5.8 22.9 5.2 22.3 4.6 21.7C3.8 20.9 3.6 19.8 4.2 18.8C4.3 18.6 4.4 18.5 4.6 18.3C5.3 17.6 5.9 17 6.6 16.3C7 15.8 7.7 15.8 8 16.3C8.3 16.7 8.2 17.2 7.9 17.5C7.5 17.9 7.1 18.3 6.7 18.7C6.4 19 6.1 19.3 5.9 19.5C5.6 19.8 5.6 20 5.9 20.3C6.5 20.9 7.1 21.6 7.8 22.1C8.4 22.7 8.4 23.6 7.5 23.9C7.3 24 7.2 24 7.1 24Z" fill="#636463"/>
<path d="M15 0C15.3 0.1 15.5 0.3 15.7 0.5C16.3 1.1 16.9 1.7 17.5 2.3C18.3 3.1 18.5 4.2 17.9 5.2C17.8 5.4 17.7 5.5 17.5 5.7C16.8 6.4 16.2 7 15.5 7.7C15 8.2 14.4 8.2 14 7.7C13.7 7.3 13.8 6.8 14.1 6.5C14.5 6.1 14.9 5.7 15.3 5.3C15.6 5 15.9 4.7 16.2 4.4C16.5 4.1 16.5 3.9 16.2 3.6C15.6 3 15 2.3 14.3 1.8C13.7 1.2 13.7 0.3 14.6 0C14.7 0 14.8 0 15 0Z" fill="#636463"/>
<path d="M9.30001 3.10001C10.6 3.10001 15 3.10001 16.3 3.10001C16.7 3.10001 17 3.30001 17.2 3.60001C17.4 3.90001 17.3 4.20001 17.2 4.50001C17 4.80001 16.7 5.00001 16.3 5.00001C15.1 5.00001 10.8 5.00001 9.60001 5.00001C8.30001 5.00001 6.90001 5.00001 5.60001 5.00001C4.60001 5.00001 3.90001 5.50001 3.70001 6.40001C3.60001 6.60001 3.60001 6.80001 3.60001 7.00001C3.60001 9.50001 3.60001 12 3.60001 14.5C3.60001 15 3.40001 15.3 3.00001 15.5C2.40001 15.7 1.80001 15.3 1.70001 14.7V14.6C1.70001 12 1.70001 9.40001 1.70001 6.70001C1.70001 4.70001 3.40001 3.10001 5.30001 3.10001C6.70001 3.10001 8.00001 3.10001 9.30001 3.10001Z" fill="#636463"/>
<path d="M20.2 13.3C20.2 14.6 20.2 15.8 20.2 17.1C20.2 18.9 19 20.4 17.2 20.8C17 20.8 16.7 20.9 16.5 20.9C14 20.9 8.39999 20.9 5.89999 20.9C5.49999 20.9 5.19999 20.7 4.99999 20.3C4.79999 19.9 4.89999 19.6 5.19999 19.3C5.39999 19.1 5.69999 19 5.99999 19C8.49999 19 13.9 19 16.4 19C17.1 19 17.6 18.8 18 18.2C18.3 17.8 18.4 17.4 18.4 17C18.4 14.4 18.4 11.9 18.4 9.3C18.4 8.8 18.6 8.5 19 8.3C19.6 8.1 20.2 8.5 20.2 9.2C20.2 10.3 20.2 11.4 20.2 12.5C20.2 12.9 20.2 13.1 20.2 13.3Z" fill="#636463"/>
</g>
<defs>
<clipPath id="clip0_2_63">
<rect width="24" height="24" fill="white"/>
</clipPath>
</defs>
</svg>
