<svg width="30" height="30" viewBox="0 0 30 30" fill="none" xmlns="http://www.w3.org/2000/svg">
<path id="Vector" d="M28.5584 10.1418C30.3293 8.37095 29.5218 6.30261 28.5584 5.29678L24.3084 1.04678C22.5234 -0.724053 20.4693 0.0834468 19.4634 1.04678L17.0551 3.46928H13.3859C10.6943 3.46928 9.13595 4.88595 8.34261 6.51511L2.05261 12.8051V18.4718L1.04678 19.4634C-0.724053 21.2484 0.0834468 23.3026 1.04678 24.3084L5.29678 28.5584C6.06178 29.3234 6.88345 29.6068 7.66261 29.6068C8.66845 29.6068 9.58928 29.1109 10.1418 28.5584L13.9668 24.7193H19.0526C21.4609 24.7193 22.6793 23.2176 23.1184 21.7443C24.7193 21.3193 25.5976 20.1009 25.9518 18.9109C28.1476 18.3443 28.9693 16.2618 28.9693 14.8026V10.5526H28.1334L28.5584 10.1418ZM26.1359 14.8026C26.1359 15.4401 25.8668 16.2193 24.7193 16.2193H23.3026V17.6359C23.3026 18.2734 23.0334 19.0526 21.8859 19.0526H20.4693V20.4693C20.4693 21.1068 20.2001 21.8859 19.0526 21.8859H12.8051L8.15845 26.5326C7.71928 26.9434 7.46428 26.7026 7.30845 26.5468L3.07261 22.3251C2.66178 21.8859 2.90261 21.6309 3.05845 21.4751L4.88595 19.6334V13.9668L7.71928 11.1334V13.3859C7.71928 15.1001 8.85261 17.6359 11.9693 17.6359C15.0859 17.6359 16.2193 15.1001 16.2193 13.3859H26.1359V14.8026ZM26.5468 8.13011L24.1384 10.5526H13.3859V13.3859C13.3859 14.0234 13.1168 14.8026 11.9693 14.8026C10.8218 14.8026 10.5526 14.0234 10.5526 13.3859V9.13595C10.5526 8.48428 10.7934 6.30261 13.3859 6.30261H18.2168L21.4468 3.07261C21.8859 2.66178 22.1409 2.90261 22.2968 3.05845L26.5326 7.28011C26.9434 7.71928 26.7026 7.97428 26.5468 8.13011Z" fill="#0277B6"/>
</svg>
