<svg width="36" height="36" viewBox="0 0 36 36" fill="none" xmlns="http://www.w3.org/2000/svg">
<path d="M17.134 1.5C17.5189 0.833332 18.4811 0.833333 18.866 1.5L32.7224 25.5C33.1073 26.1667 32.6262 27 31.8564 27H4.14359C3.37379 27 2.89267 26.1667 3.27757 25.5L17.134 1.5Z" fill="#E8FF5E"/>
<path d="M17.1686 18.138L16.7726 7.6H19.2586L18.8406 18.138H17.1686ZM18.0266 23.132C17.616 23.132 17.2713 22.9927 16.9926 22.714C16.714 22.4353 16.5746 22.1053 16.5746 21.724C16.5746 21.3133 16.714 20.976 16.9926 20.712C17.2713 20.448 17.616 20.316 18.0266 20.316C18.4373 20.316 18.7746 20.448 19.0386 20.712C19.3026 20.976 19.4346 21.3133 19.4346 21.724C19.4346 22.1053 19.3026 22.4353 19.0386 22.714C18.7746 22.9927 18.4373 23.132 18.0266 23.132Z" fill="#333333"/>
</svg>
